<svg width="285" height="268" viewBox="0 0 285 268" fill="none" xmlns="http://www.w3.org/2000/svg">
<g clip-path="url(#clip0)">
<path opacity="0.18" d="M118.206 3.29813C140.15 -3.22587 165.421 -0.246549 183.466 13.8379C199.87 26.6661 208.648 46.7316 222.268 62.4897C235.556 77.8799 253.295 88.9626 266.435 104.483C279.574 120.003 287.502 143.12 277.011 160.529C269.321 173.286 252.841 181.371 251.335 196.178C250.885 200.831 252.041 205.497 252.032 210.173C251.987 229.152 232.588 242.829 213.855 246.122C195.122 249.415 175.79 245.839 156.904 248.002C140.267 249.904 124.362 256.209 107.742 258.389C91.1223 260.57 72.2182 257.591 61.6555 244.605C53.6694 234.788 52.0191 221.273 45.7012 210.33C32.4585 187.37 -1.0643 174.412 0.032894 147.961C0.842298 128.771 20.187 116.481 30.6868 100.4C43.6597 80.4958 44.3208 56.6926 62.0917 40.0147C77.7626 25.2751 97.1838 9.54394 118.206 3.29813Z" fill="#68E1FD"/>
<path opacity="0.57" d="M48.7217 149.173C42.6152 152.506 36.5132 156.8 33.8512 163.212C30.0829 172.316 34.5616 183.071 41.6934 189.887C55.9119 203.473 77.6084 204.694 97.2949 204.73C126.937 204.787 156.564 203.936 186.176 202.177C195.224 201.638 204.406 200.988 212.941 197.928C224.632 193.732 234.251 185.333 243.478 177.032C248.06 172.913 252.777 168.543 254.913 162.772C259.176 151.268 251.698 138.642 242.565 130.435C228.018 117.468 209.149 110.379 189.643 110.554C188.798 113.246 191.752 115.489 194.311 116.669C202.477 120.429 211.236 123.023 218.822 127.851C226.408 132.679 232.906 140.468 233.023 149.442C233.185 161.44 222.343 170.602 211.61 176.009C186.721 188.545 157.991 190.838 130.112 191.018C113.29 191.139 96.0763 190.502 80.3739 184.467C77.0553 183.193 73.494 181.326 72.4103 177.943C71.6054 175.444 72.3878 172.711 73.4805 170.315C75.2383 166.544 77.7502 163.172 80.8619 160.405C83.9736 157.638 87.6193 155.535 91.5751 154.225C96.9712 152.471 103.01 152.156 107.57 148.791C111.167 146.135 113.519 139.539 109.508 136.452C105.87 133.652 95.2085 135.802 91.0715 136.201C76.2239 137.637 61.8195 142.049 48.7217 149.173Z" fill="white"/>
<path d="M27.34 9.5841L88.5264 34.1994C89.4468 34.5704 90.2351 35.2072 90.7903 36.0282C91.3455 36.8493 91.6423 37.817 91.6426 38.8075V142.967C91.6429 143.79 91.4382 144.6 91.0471 145.325C90.6559 146.049 90.0905 146.665 89.4017 147.118C88.7129 147.57 87.9222 147.845 87.1007 147.917C86.2792 147.989 85.4526 147.856 84.6952 147.53L22.1913 120.712C21.2912 120.321 20.5272 119.673 19.9951 118.85C19.4631 118.027 19.1868 117.065 19.201 116.086L20.5005 14.1294C20.5105 13.3217 20.7177 12.5286 21.1042 11.8189C21.4907 11.1092 22.0449 10.5042 22.7186 10.0565C23.3924 9.60872 24.1654 9.33168 24.9707 9.24937C25.776 9.16706 26.5892 9.28195 27.34 9.5841Z" fill="#68E1FD"/>
<path d="M23.3513 11.1545L84.5062 35.7698C85.4314 36.1361 86.2255 36.7702 86.7865 37.5907C87.3475 38.4111 87.6495 39.3802 87.6539 40.3734V144.538C87.653 145.36 87.4476 146.169 87.0562 146.893C86.6647 147.617 86.0994 148.233 85.4109 148.685C84.7225 149.137 83.9323 149.412 83.1112 149.484C82.2902 149.557 81.4639 149.425 80.7065 149.101L18.2026 122.278C17.2991 121.889 16.5309 121.243 15.9948 120.42C15.4587 119.596 15.1786 118.633 15.1898 117.652L16.4893 15.6953C16.4986 14.8851 16.7063 14.0896 17.0943 13.3779C17.4824 12.6663 18.039 12.0601 18.7157 11.6124C19.3923 11.1646 20.1685 10.8888 20.9765 10.809C21.7845 10.7292 22.5997 10.8478 23.3513 11.1545ZM221.205 9.20717L281.641 33.5263C282.629 33.923 283.476 34.6043 284.074 35.4834C284.672 36.3624 284.995 37.3994 285 38.462V141.796C285.003 142.684 284.784 143.558 284.364 144.341C283.944 145.123 283.336 145.789 282.594 146.279C281.852 146.769 280.999 147.066 280.113 147.145C279.227 147.224 278.335 147.082 277.517 146.732L215.809 120.227C214.835 119.809 214.007 119.113 213.43 118.225C212.852 117.338 212.55 116.3 212.563 115.242L213.853 14.1069C213.866 13.2391 214.09 12.3874 214.506 11.625C214.921 10.8626 215.517 10.2125 216.24 9.73042C216.963 9.24838 217.793 8.9489 218.658 8.85775C219.523 8.7666 220.397 8.88652 221.205 9.20717Z" fill="#68E1FD"/>
<path d="M217.608 11.3698L278.008 35.68C279 36.0784 279.85 36.7639 280.449 37.6482C281.047 38.5326 281.367 39.5754 281.367 40.6426V143.959C281.37 144.846 281.151 145.721 280.731 146.503C280.311 147.286 279.703 147.952 278.961 148.442C278.218 148.931 277.366 149.229 276.48 149.308C275.594 149.387 274.702 149.245 273.884 148.894L212.172 122.421C211.198 122.004 210.37 121.307 209.793 120.42C209.216 119.532 208.915 118.494 208.93 117.436L210.216 16.301C210.221 15.4254 210.441 14.5645 210.857 13.7934C211.273 13.0224 211.871 12.3649 212.601 11.8783C213.33 11.3917 214.168 11.0909 215.041 11.0023C215.914 10.9136 216.796 11.0398 217.608 11.3698Z" fill="#68E1FD"/>
<path d="M23.3513 11.1545L84.5062 35.7698C85.4314 36.1361 86.2256 36.7702 86.7865 37.5906C87.3475 38.411 87.6496 39.3802 87.6539 40.3734V144.538C87.653 145.36 87.4477 146.169 87.0562 146.893C86.6648 147.617 86.0995 148.233 85.411 148.685C84.7225 149.137 83.9323 149.412 83.1113 149.484C82.2902 149.557 81.464 149.425 80.7065 149.101L18.2026 122.278C17.2991 121.889 16.5309 121.243 15.9948 120.42C15.4587 119.596 15.1786 118.633 15.1898 117.652L16.4893 15.6952C16.4986 14.8851 16.7063 14.0895 17.0943 13.3779C17.4824 12.6662 18.039 12.0601 18.7157 11.6123C19.3923 11.1646 20.1685 10.8888 20.9765 10.8089C21.7845 10.7291 22.5998 10.8478 23.3513 11.1545Z" fill="url(#paint0_linear)"/>
<path d="M217.608 11.3698L278.008 35.68C279 36.0784 279.85 36.7639 280.449 37.6482C281.047 38.5326 281.367 39.5754 281.367 40.6426V143.959C281.37 144.846 281.151 145.721 280.731 146.503C280.311 147.286 279.703 147.952 278.961 148.442C278.218 148.931 277.366 149.229 276.48 149.308C275.594 149.387 274.702 149.245 273.884 148.894L212.172 122.421C211.198 122.004 210.37 121.307 209.793 120.42C209.216 119.532 208.915 118.494 208.93 117.436L210.216 16.301C210.221 15.4254 210.441 14.5645 210.857 13.7934C211.273 13.0224 211.871 12.3649 212.601 11.8783C213.33 11.3917 214.168 11.0909 215.041 11.0023C215.914 10.9136 216.796 11.0398 217.608 11.3698Z" fill="url(#paint1_linear)"/>
<path d="M196.442 129.52L184.301 130.444L182.871 123.175C181.873 120.99 184.301 130.444 177.7 166.093L173.896 165.231L133.772 156.159L143.507 105.008L126.541 103.864L129.41 87.9529L137.85 88.6708C137.85 88.6708 153.018 87.0914 164.313 88.6708C175.609 90.2502 183.577 90.6495 188.933 96.1505C194.288 101.651 196.442 129.52 196.442 129.52Z" fill="#68E1FD"/>
<path d="M182.871 123.175C181.873 120.99 184.301 130.444 177.7 166.093L173.896 165.231L169.903 164.334C169.903 164.334 174.116 154.463 171.751 152.668C169.386 150.873 157.753 155.221 147.329 156.163C136.906 157.105 138.233 154.202 138.233 154.202C138.233 154.202 147.766 145.552 163.904 140.863C180.043 136.174 180.807 112.021 180.807 112.021L182.871 123.175Z" fill="url(#paint2_linear)"/>
<path d="M158.018 91.0354C158.018 91.0354 168.199 91.4571 171.994 88.4285L175.173 90.1963C175.173 90.1963 174.305 96.2716 169.327 97.0793C164.349 97.8869 158.009 97.6132 158.018 91.0354Z" fill="#68E1FD"/>
<path d="M158.018 91.0354C158.018 91.0354 168.199 91.4571 171.994 88.4285L175.173 90.1963C175.173 90.1963 174.305 96.2716 169.327 97.0793C164.349 97.8869 158.009 97.6132 158.018 91.0354Z" fill="url(#paint3_linear)"/>
<path d="M149.092 142.321L138.637 138.835C138.637 138.835 137.405 139.647 139.235 140.993C140.011 141.58 140.753 142.211 141.457 142.882L149.092 142.321Z" fill="url(#paint4_linear)"/>
<path d="M158.738 86.7054C158.967 84.9107 159.057 82.923 160.212 81.5051C160.926 80.7358 161.781 80.1099 162.731 79.661L170.343 75.4432C171.27 74.9317 172.277 74.4023 173.325 74.5459C173.579 74.5675 173.823 74.6608 174.026 74.8151C174.534 75.2324 174.453 76.0221 174.328 76.6727C173.554 80.5942 172.776 84.5158 171.994 88.4374C171.822 89.5499 171.503 90.6348 171.045 91.6635C170.416 92.8228 169.473 93.7829 168.325 94.4348C167.176 95.0867 165.868 95.4044 164.547 95.3517C162.389 95.2295 160.361 94.2813 158.886 92.7045C157.177 90.9142 158.459 88.9265 158.738 86.7054Z" fill="url(#paint5_linear)"/>
<path d="M183.514 145.776C184.999 145.565 186.434 145.094 187.755 144.385C190.39 142.976 194.612 140.463 195.435 138.462C196.645 135.505 196.442 129.52 196.442 129.52L184.301 130.444C184.301 130.444 184.405 134.271 183.402 134.406C182.399 134.541 150.158 142.595 150.158 142.595C150.158 142.595 145.171 140.984 140.796 142.662C136.421 144.34 129.972 148.244 131.614 150.29C131.864 150.592 132.177 150.836 132.531 151.007C132.885 151.177 133.271 151.269 133.664 151.277C135.085 151.322 134.527 152.977 135.382 153.606C136.524 154.445 147.874 155.311 151.759 151.286C152.752 150.263 176.279 146.817 183.514 145.776Z" fill="url(#paint6_linear)"/>
<path d="M129.41 87.9483L127.396 99.0984C125.454 97.7081 123.415 96.459 121.294 95.3607C117.723 93.5121 109.382 70.2339 109.382 70.2339C109.382 70.2339 108.505 66.0745 105.883 64.6611C103.262 63.2478 103.392 58.6801 103.392 57.1994C103.392 55.7232 102.043 53.4438 100.726 51.6356C99.4082 49.8274 100.726 48.8806 100.726 48.8806C100.726 48.8806 104.13 52.1022 104.193 51.7029C104.256 51.3036 102.493 46.8929 101.495 45.7846C100.496 44.6764 100.555 42.8412 101.094 42.572C101.634 42.3028 106.94 49.2171 106.94 49.2171C106.774 47.482 106.342 45.7825 105.659 44.1783C104.584 41.8316 104.854 39.2113 105.659 39.6151C106.463 40.0189 109.831 47.6916 109.831 46.2243C109.831 44.7571 107.133 37.2011 109.292 38.0043C110.097 38.3049 110.974 39.8619 111.851 42.2489C113.312 46.2468 114.76 52.5689 115.808 59.232C117.494 69.8436 129.41 87.9483 129.41 87.9483Z" fill="url(#paint7_linear)"/>
<path d="M113.083 52.4342C113.083 52.4342 110.798 49.7959 109.112 50.1414C107.426 50.4869 109.449 53.2374 109.449 53.2374C109.449 53.2374 110.861 55.6558 110.191 57.334C109.521 59.0121 109.049 62.7721 109.247 62.9067C109.445 63.0413 107.768 64.5893 105.951 60.6274C105.356 59.3136 104.485 58.1429 103.397 57.1949C103.397 55.7187 102.048 53.4393 100.73 51.6311C99.4128 49.8228 100.73 48.8761 100.73 48.8761C100.73 48.8761 104.134 52.0977 104.197 51.6984C104.26 51.299 102.498 46.8884 101.499 45.7801C100.501 44.6718 100.559 42.8367 101.099 42.5675C101.639 42.2983 106.945 49.2126 106.945 49.2126C106.779 47.4774 106.346 45.778 105.663 44.1738C104.589 41.8271 104.858 39.2068 105.663 39.6106C106.468 40.0144 109.836 47.6871 109.836 46.2198C109.836 44.7526 107.138 37.1966 109.297 37.9998C110.101 38.3004 110.978 39.8574 111.855 42.2444C111.873 42.2444 113.285 49.4773 113.083 52.4342Z" fill="url(#paint8_linear)"/>
<path d="M194.09 242.223L177.7 253.489C175.24 248.742 184.301 239.804 184.301 239.804C184.301 239.804 170.361 217.885 164.925 203.24C160.784 192.13 159.079 180.604 152.582 180.698C150.518 180.729 147.972 181.932 144.708 184.691C131.155 196.133 135.422 234.99 135.422 234.99L131.375 237.278L115.111 246.431L114.423 242.523C113.775 233.765 125.691 229.605 125.691 229.605C125.691 229.605 124.302 210.549 125.691 191.466C127.081 172.383 133.785 156.159 133.785 156.159L169.916 164.329L175.186 165.518C174.89 202.922 193.776 241.617 194.086 242.214L194.09 242.223Z" fill="#3F3D56"/>
<path d="M177.943 66.6668C177.707 68.1807 177.311 69.6653 176.76 71.0954C176.909 71.0864 177.058 71.1195 177.189 71.191C177.321 71.2624 177.429 71.3692 177.502 71.4993C178.357 72.9216 176.36 77.6823 173.752 77.1438C172.3 79.5533 170.64 81.9045 168.387 83.5915C163.342 87.3695 155.554 86.8535 151.057 82.4563C147.743 79.2213 146.327 74.4158 146.354 69.7897C146.385 64.4054 147.838 55.8488 151.237 51.4292C154.637 47.0096 161.89 48.7101 166.35 50.2312C169.799 51.4068 173.28 53.0176 175.515 55.8892C177.839 58.8775 178.487 62.9247 177.943 66.6668Z" fill="url(#paint9_linear)"/>
<path d="M147.329 45.6411C148.382 44.2053 147.941 42.2266 148.076 40.4542C148.238 38.3498 149.578 36.1423 151.673 35.8057C152.55 35.6622 153.445 35.8596 154.335 35.8506C156.134 35.8506 157.825 34.9532 159.52 34.3206C161.215 33.6879 163.198 33.2751 164.79 34.1411C165.775 34.675 166.463 35.6218 167.304 36.3846C168.579 37.4872 170.195 38.1207 171.881 38.1793C173.23 38.2242 174.606 37.8877 175.973 37.8787C177.34 37.8697 178.847 38.2825 179.571 39.4312C180.367 40.6561 180.047 42.2624 180.317 43.6983C180.519 44.7617 181.347 45.4212 182.278 45.9866C183.208 46.552 184.243 47.0231 184.89 47.8935C185.228 48.4085 185.448 48.9921 185.533 49.6019C185.617 50.2118 185.565 50.8329 185.38 51.4203C185.004 52.5907 184.429 53.688 183.681 54.6643C183.231 55.3239 182.723 56.0643 182.844 56.8584C183.002 57.9174 184.135 58.4917 184.814 59.3173C185.102 59.7089 185.302 60.1576 185.402 60.633C185.502 61.1085 185.498 61.5998 185.392 62.0739C185.285 62.5479 185.078 62.9936 184.785 63.3811C184.491 63.7686 184.118 64.0888 183.69 64.3202C183.132 64.5805 182.493 64.6926 182.026 65.092C180.924 66.0432 181.387 68.0444 180.29 69.0001C179.391 69.7988 177.83 69.3187 177.084 68.354C176.337 67.3893 174.615 64.9349 174.44 63.7279C174.125 61.7806 175.2 60.9101 173.855 59.4653C172.281 57.7827 169.885 57.2219 167.749 56.3694C165.109 55.297 161.867 55.5168 159.255 54.3817C156.948 53.3766 153.598 52.3625 151.259 51.4293C148.921 50.496 148.71 47.7365 147.329 45.6411Z" fill="#3F3D56"/>
<path d="M174.953 63.3151L180.798 66.936C180.798 66.936 179.072 71.7954 177.696 72.3203L170.528 69.2378L174.953 63.3151Z" fill="#68E1FD"/>
<path d="M174.953 63.3151L180.798 66.936C180.798 66.936 179.072 71.7954 177.696 72.3203L170.528 69.2378L174.953 63.3151Z" fill="url(#paint10_linear)"/>
<path d="M147.689 45.7847C147.689 45.7847 139.946 45.9193 138.053 48.6069C136.16 51.2946 134.334 60.2057 134.334 60.2057L160.783 71.8044C160.783 71.8044 164.282 73.3299 167.308 71.1717C170.334 69.0135 175.56 67.2591 175.344 64.5086C175.128 61.7582 177.268 58.9448 172.961 56.8001C168.653 54.6553 150.545 51.685 147.689 45.7847Z" fill="#68E1FD"/>
<path d="M147.689 45.7847C147.689 45.7847 139.946 45.9193 138.053 48.6069C136.16 51.2946 134.334 60.2057 134.334 60.2057L160.783 71.8044C160.783 71.8044 164.282 73.3299 167.308 71.1717C170.334 69.0135 175.56 67.2591 175.344 64.5086C175.128 61.7582 177.268 58.9448 172.961 56.8001C168.653 54.6553 150.545 51.685 147.689 45.7847Z" fill="url(#paint11_linear)"/>
<path d="M138.053 48.6069C138.053 48.6069 164.417 58.2987 165.528 59.2275C166.638 60.1563 164.921 67.0034 163.306 70.3237C161.692 73.644 158.917 72.3249 158.917 72.3249L135.009 62.9741C135.009 62.9741 133.457 61.969 135.009 56.7328C136.56 51.4965 137.41 49.8453 138.053 48.6069Z" fill="#68E1FD"/>
<path d="M138.053 48.6069C138.053 48.6069 164.417 58.2987 165.528 59.2275C166.638 60.1563 164.921 67.0034 163.306 70.3237C161.692 73.644 158.917 72.3249 158.917 72.3249L135.009 62.9741C135.009 62.9741 133.457 61.969 135.009 56.7328C136.56 51.4965 137.41 49.8453 138.053 48.6069Z" fill="url(#paint12_linear)"/>
<path d="M133.97 54.5073C134.177 53.7804 135.386 53.0804 136.097 53.3452C141.83 55.4854 164.017 64.1811 166.467 64.1811C169.278 64.1811 175.362 62.9472 175.362 62.9472C175.487 63.4602 175.487 63.9957 175.362 64.5087C175.132 65.1144 168.019 67.8739 164.938 67.3623C162.24 66.9137 140.112 59.3442 134.847 57.3699C134.222 57.1366 133.641 55.6828 133.821 55.0367L133.97 54.5073Z" fill="#68E1FD"/>
<path d="M133.97 54.5073C134.177 53.7804 135.386 53.0804 136.097 53.3452C141.83 55.4854 164.017 64.1811 166.467 64.1811C169.278 64.1811 175.362 62.9472 175.362 62.9472C175.487 63.4602 175.487 63.9957 175.362 64.5087C175.132 65.1144 168.019 67.8739 164.938 67.3623C162.24 66.9137 140.112 59.3442 134.847 57.3699C134.222 57.1366 133.641 55.6828 133.821 55.0367L133.97 54.5073Z" fill="url(#paint13_linear)"/>
<path d="M127.396 99.0984H138.763C139.48 99.0978 140.188 99.2555 140.836 99.5602C141.484 99.8648 142.057 100.309 142.513 100.86C142.969 101.412 143.297 102.057 143.474 102.75C143.65 103.443 143.671 104.167 143.534 104.869L143.507 105.017L126.541 103.872L127.396 99.0984Z" fill="url(#paint14_linear)"/>
<path d="M194.086 242.214C170.672 217.639 169.903 164.329 169.903 164.329L175.173 165.519C174.89 202.922 193.776 241.617 194.086 242.214ZM152.582 180.698C150.518 180.729 147.972 181.932 144.708 184.691C131.155 196.133 135.422 234.99 135.422 234.99L131.375 237.278C127.985 216.916 127.778 199.408 138.197 185.445C142.302 179.904 151.956 180.63 152.582 180.698Z" fill="#25233A"/>
<path opacity="0.19" d="M72.1539 237.722C70.6565 240.553 70.1034 244.04 67.6572 246.113C65.211 248.186 61.2809 248.311 59.1135 250.761C56.4155 253.821 58.1467 258.99 61.5148 261.288C64.8828 263.585 69.2041 263.809 73.2781 263.953L183.924 267.897C191.635 268.171 200.035 268.238 206.173 263.576C213.678 257.882 214.717 245.48 208.242 238.633C211.529 238.355 214.951 238.027 217.77 236.313C220.59 234.599 222.573 231.041 221.399 227.963C219.911 224.073 214.811 223.301 210.638 223.225C182.966 222.718 156.539 228.789 129.163 230.189C114.095 230.951 81.0484 220.901 72.1539 237.722Z" fill="url(#paint15_linear)"/>
<path opacity="0.57" d="M102.943 107.87C104.777 115.099 113.285 118.051 120.538 119.761C138.768 124.055 153.737 123.072 172.151 119.635C180.425 118.092 193.142 117.62 203.147 120.384C204.046 120.64 206.349 112.833 205.773 112.07C205.373 111.541 197.764 110.666 197.112 110.545C191.361 109.504 177.017 109.889 171.207 110.545C157.227 112.133 140.98 94.3602 135.827 107.363C135.072 109.275 101.427 101.88 102.943 107.87Z" fill="white"/>
</g>
<defs>
<linearGradient id="paint0_linear" x1="71.0521" y1="260.466" x2="50.2679" y2="67.5366" gradientUnits="userSpaceOnUse">
<stop offset="0.01"/>
<stop offset="0.99" stop-opacity="0"/>
</linearGradient>
<linearGradient id="paint1_linear" x1="49694" y1="66299.4" x2="37788" y2="8574.42" gradientUnits="userSpaceOnUse">
<stop offset="0.01"/>
<stop offset="0.99" stop-opacity="0"/>
</linearGradient>
<linearGradient id="paint2_linear" x1="196.761" y1="151.968" x2="125.523" y2="116.721" gradientUnits="userSpaceOnUse">
<stop offset="0.01"/>
<stop offset="0.15" stop-opacity="0.48"/>
<stop offset="0.99" stop-opacity="0"/>
</linearGradient>
<linearGradient id="paint3_linear" x1="9006.67" y1="1998.75" x2="8017.44" y2="1612.99" gradientUnits="userSpaceOnUse">
<stop offset="0.01"/>
<stop offset="0.99" stop-opacity="0"/>
</linearGradient>
<linearGradient id="paint4_linear" x1="143.597" y1="140.845" x2="142.188" y2="142.306" gradientUnits="userSpaceOnUse">
<stop stop-color="#ECC4D7"/>
<stop offset="0.42" stop-color="#EFD4D1"/>
<stop offset="1" stop-color="#F2EAC9"/>
</linearGradient>
<linearGradient id="paint5_linear" x1="166.841" y1="84.2466" x2="172.442" y2="91.5631" gradientUnits="userSpaceOnUse">
<stop stop-color="#ECC4D7"/>
<stop offset="0.83" stop-color="#F2EAC9"/>
</linearGradient>
<linearGradient id="paint6_linear" x1="25989.6" y1="7928.65" x2="35414.6" y2="7928.65" gradientUnits="userSpaceOnUse">
<stop stop-color="#ECC4D7"/>
<stop offset="0.42" stop-color="#EFD4D1"/>
<stop offset="1" stop-color="#F2EAC9"/>
</linearGradient>
<linearGradient id="paint7_linear" x1="9693.95" y1="9271.53" x2="11599.1" y2="9271.53" gradientUnits="userSpaceOnUse">
<stop stop-color="#ECC4D7"/>
<stop offset="0.42" stop-color="#EFD4D1"/>
<stop offset="1" stop-color="#F2EAC9"/>
</linearGradient>
<linearGradient id="paint8_linear" x1="4347.32" y1="2857.47" x2="4720.9" y2="2857.47" gradientUnits="userSpaceOnUse">
<stop stop-color="#ECC4D7"/>
<stop offset="0.42" stop-color="#EFD4D1"/>
<stop offset="1" stop-color="#F2EAC9"/>
</linearGradient>
<linearGradient id="paint9_linear" x1="15951.5" y1="4775.29" x2="13647.1" y2="5948.67" gradientUnits="userSpaceOnUse">
<stop stop-color="#ECC4D7"/>
<stop offset="0.83" stop-color="#F2EAC9"/>
</linearGradient>
<linearGradient id="paint10_linear" x1="5309.03" y1="1336.03" x2="5251.58" y2="1467.17" gradientUnits="userSpaceOnUse">
<stop offset="0.01"/>
<stop offset="0.99" stop-opacity="0"/>
</linearGradient>
<linearGradient id="paint11_linear" x1="16640" y1="3728.63" x2="21928.7" y2="2291.24" gradientUnits="userSpaceOnUse">
<stop offset="0.01"/>
<stop offset="0.99" stop-opacity="0"/>
</linearGradient>
<linearGradient id="paint12_linear" x1="13724.3" y1="3793.5" x2="14075.4" y2="2547.95" gradientUnits="userSpaceOnUse">
<stop offset="0.01"/>
<stop offset="0.99" stop-opacity="0"/>
</linearGradient>
<linearGradient id="paint13_linear" x1="18890" y1="1833.17" x2="18865.9" y2="2135.82" gradientUnits="userSpaceOnUse">
<stop offset="0.01"/>
<stop offset="0.99" stop-opacity="0"/>
</linearGradient>
<linearGradient id="paint14_linear" x1="7150.55" y1="1586.36" x2="7128.5" y2="1339.98" gradientUnits="userSpaceOnUse">
<stop offset="0.01"/>
<stop offset="0.99" stop-opacity="0"/>
</linearGradient>
<linearGradient id="paint15_linear" x1="57.8095" y1="245.597" x2="221.759" y2="245.597" gradientUnits="userSpaceOnUse">
<stop stop-color="#183866"/>
<stop offset="1" stop-color="#1A7FC1"/>
</linearGradient>
<clipPath id="clip0">
<rect width="285" height="268" fill="white"/>
</clipPath>
</defs>
</svg>
