<svg width="49" height="53" viewBox="0 0 49 53" fill="none" xmlns="http://www.w3.org/2000/svg">
<path fill-rule="evenodd" clip-rule="evenodd" d="M25.5809 46.6011V26.5696C25.5809 24.9003 24.4741 24.2047 24.4741 24.2047L2.75284 11.9633C1.92273 12.5197 0.815918 13.6325 0.815918 15.9974V37.1417C0.815918 39.5066 2.06108 40.7585 2.8912 41.1759L21.7071 51.8871L22.8139 52.5827C23.3673 52.8609 24.059 53 24.6124 53C24.8891 53 25.3042 52.8609 25.5809 52.8609C26.1343 52.7218 26.5494 52.4436 26.5494 52.4436L36.5107 46.8793L46.3337 41.1759C47.0254 40.7585 48.409 39.5066 48.409 37.0026V33.1076V30.4646V15.9974C48.409 13.4934 47.0254 12.2415 46.3337 11.8241L26.411 0.417323C26.1343 0.278215 25.4426 0 24.6124 0C23.9207 0 23.3673 0.139108 22.6755 0.417323L22.5372 0.55643L21.292 1.25197L29.4548 5.98163L43.4283 13.9108C43.4283 13.9108 43.5667 13.9108 43.9817 14.189C44.3968 14.6063 45.0885 15.3018 45.2269 16.5538C45.2269 16.6929 45.2269 16.832 45.2269 17.1102V35.6115C45.2269 35.6115 45.2269 35.7507 45.2269 36.0289C45.0885 36.5853 44.8118 37.6982 43.4283 38.3937L33.467 44.0971L27.3795 47.5748C25.7193 48.5486 25.5809 46.6011 25.5809 46.6011ZM29.4548 23.7874V40.2021C29.4548 40.4803 29.7315 40.8976 30.1465 40.7585L32.9136 39.2283C33.3286 38.9501 33.467 38.3937 33.467 38.2546V22.6745C33.3286 21.1444 32.2218 20.5879 32.2218 20.5879L29.5931 19.0577L29.4548 18.9186L18.3866 12.6588L9.94714 7.79003L6.9034 9.45932L28.3479 21.7008C28.3479 21.7008 29.4548 22.3963 29.4548 23.7874ZM37.3408 23.3701V35.7507C37.3408 35.7507 37.3408 36.4462 38.1709 36.3071L40.7996 34.7769C41.2147 34.4987 41.2147 33.664 41.2147 33.664V25.5958V18.9186C41.2147 17.3885 40.1079 16.832 40.1079 16.832L17.1414 3.6168L14.0977 5.4252L35.8189 17.8058C35.8189 17.8058 37.3408 18.9186 37.3408 20.5879V23.3701Z" fill="url(#paint0_linear)"/>
<defs>
<linearGradient id="paint0_linear" x1="48.6054" y1="-13.3607" x2="-56.5197" y2="34.1208" gradientUnits="userSpaceOnUse">
<stop stop-color="#402A85"/>
<stop offset="0.020202" stop-color="#402A85"/>
<stop offset="0.292929" stop-color="#352058"/>
<stop offset="1" stop-color="#201E4C"/>
</linearGradient>
</defs>
</svg>
