<svg width="60" height="41" viewBox="0 0 60 41" fill="none" xmlns="http://www.w3.org/2000/svg">
<path fill-rule="evenodd" clip-rule="evenodd" d="M34.5259 0H53.6187V19.0156H34.5259V0ZM11.4437 28.6342V30.4945H14.7344V40.3361H17.0034V30.4193H20.0671V28.559L11.4437 28.6355V28.6342ZM9.74899 30.9405V29.0802C7.92867 28.2622 5.8353 28.015 3.69194 29.0802C0.176921 30.6423 0.0512925 38.3777 3.56759 39.8902C5.58661 40.9069 9.7977 40.4355 10.222 39.5423V33.4187H6.03528V35.0305H7.87868V38.2541C1.82162 41.1796 0.699943 27.1218 9.74899 30.9405ZM23.7578 34.9311H25.9255C27.7202 35.0063 28.1945 38.3777 25.8511 38.3522H23.7578V34.9311ZM23.7578 30.1963H25.9255C27.7202 30.5187 27.0728 33.1715 25.8511 33.2454H23.7578V30.1963ZM21.5144 28.387V40.2367H27.4715C30.5122 39.146 30.6378 34.461 27.4715 33.964C30.3878 33.6429 30.5378 28.3119 25.5025 28.3119L21.5144 28.387ZM32.0325 31.7088V33.4684C33.6272 33.0224 37.0923 31.7827 36.7679 34.4113C33.7272 34.2125 31.6582 34.7578 31.3095 36.641C30.7365 40.7082 35.1232 41.1044 36.9679 39.0964V40.0634H39.0613V32.923C38.5383 30.6168 35.0745 30.3199 32.0325 31.7088ZM33.8016 36.2957C34.2759 35.6752 35.7963 35.6994 36.8179 35.9976V37.5597C35.1489 39.3435 32.4569 38.5268 33.8029 36.2945L33.8016 36.2957ZM43.3993 33.8162C43.948 33.2212 46.8643 32.105 47.313 33.8162V40.1131H49.655V33.4442C49.1564 30.6665 46.4887 30.1709 43.2493 32.0553V31.0144H41.0316V40.1628H43.3737L43.3993 33.8162ZM57.0081 30.915L53.9431 35.005L57.1837 40.038L60.0001 39.9641L56.4364 35.1299L59.6514 30.9889L57.0094 30.915H57.0081ZM51.401 27.9143H53.7187V40.038H51.3997V27.9156L51.401 27.9143Z" fill="#9A9797"/>
<path fill-rule="evenodd" clip-rule="evenodd" d="M34.5259 0H53.6187V19.0156H34.5259V0Z" fill="#9A9797"/>
</svg>
