<svg width="557" height="569" viewBox="0 0 557 569" fill="none" xmlns="http://www.w3.org/2000/svg">
<g style="mix-blend-mode:multiply">
<path d="M53.6299 427.031L286.935 563.045L520.166 425.87L286.622 289.709L53.6299 427.031Z" fill="#E6E7E8"/>
</g>
<path d="M325.187 177.664V191.197L394.655 150.376V136.825L325.187 177.664Z" fill="url(#paint0_linear)"/>
<path d="M325.223 177.664V191.197L255.773 150.671V137.175L325.223 177.664Z" fill="url(#paint1_linear)"/>
<path d="M255.773 137.175L325.223 177.664L394.655 136.825L325.131 96.2991L255.773 137.175Z" fill="url(#paint2_linear)"/>
<path style="mix-blend-mode:screen" d="M325.223 176.539L256.731 136.622L255.773 137.175L325.223 177.664L394.655 136.825L393.697 136.272L325.223 176.539Z" fill="url(#paint3_radial)"/>
<path d="M325.187 158.599V172.151L394.655 131.312V117.779L325.187 158.599Z" fill="url(#paint4_linear)"/>
<path d="M325.223 158.599V172.151L255.773 131.625V118.111L325.223 158.599Z" fill="url(#paint5_linear)"/>
<path d="M255.773 118.111L325.223 158.599L394.655 117.779L325.131 77.2532L255.773 118.111Z" fill="url(#paint6_linear)"/>
<path style="mix-blend-mode:screen" d="M325.223 157.493L256.731 117.558L255.773 118.111L325.223 158.599L394.655 117.779L393.697 117.226L325.223 157.493Z" fill="url(#paint7_radial)"/>
<path d="M325.187 139.554V153.105L394.655 112.266V98.7144L325.187 139.554Z" fill="url(#paint8_linear)"/>
<path d="M325.223 139.554V153.105L255.773 112.579V99.0648L325.223 139.554Z" fill="url(#paint9_linear)"/>
<path d="M255.773 99.0647L325.223 139.554L394.655 98.7144L325.131 58.1888L255.773 99.0647Z" fill="url(#paint10_linear)"/>
<path style="mix-blend-mode:screen" d="M325.223 138.447L256.731 98.5116L255.773 99.0647L325.223 139.554L394.655 98.7144L393.697 98.1613L325.223 138.447Z" fill="url(#paint11_radial)"/>
<path d="M325.187 120.508V134.041L394.655 93.2201V79.6685L325.187 120.508Z" fill="url(#paint12_linear)"/>
<path d="M325.223 120.508V134.041L255.773 93.5151V80.0188L325.223 120.508Z" fill="url(#paint13_linear)"/>
<path d="M255.773 80.0188L325.223 120.508L394.655 79.6685L325.131 39.1428L255.773 80.0188Z" fill="url(#paint14_linear)"/>
<path d="M266.713 79.9819L325.15 45.5406L383.697 79.6869L325.205 114.091L266.713 79.9819Z" fill="#45108A"/>
<path d="M325.15 48.3063L381.34 81.0697L383.697 79.6869L325.15 45.5406L266.713 79.9819L269.07 81.3647L325.15 48.3063Z" fill="url(#paint15_linear)"/>
<path d="M325.15 48.3063L381.34 81.0697L383.697 79.6869L325.15 45.5406V48.3063Z" fill="#330A66"/>
<path style="mix-blend-mode:screen" d="M325.223 119.383L256.731 79.4657L255.773 80.0188L325.223 120.508L394.655 79.6685L393.697 79.1154L325.223 119.383Z" fill="url(#paint16_radial)"/>
<path d="M361.044 83.2454C353.825 79.1523 348.981 73.8607 347.195 68.1082C338.002 67.3044 329.081 64.5784 321.006 60.1063L320.748 59.9404L316.862 62.6322C303.216 72.0907 300.95 81.5676 302.774 93.6626L303.05 93.8285C323.971 94.8795 340.381 93.5704 356.735 85.6791L361.394 83.4298L361.044 83.2454Z" fill="#43E8E1"/>
<path style="mix-blend-mode:color-dodge" d="M347.195 78.4885C338.006 77.6964 329.088 74.9695 321.024 70.4866L320.748 70.3391L316.862 73.031C307.838 79.2813 303.805 85.5501 302.626 92.5932C302.626 92.9619 302.718 93.3122 302.773 93.681L303.05 93.8469C322.314 94.8057 337.765 93.8469 352.867 87.4307C350.292 84.945 348.347 81.8791 347.195 78.4885Z" fill="url(#paint17_radial)"/>
<path style="mix-blend-mode:screen" d="M302.055 0.0368652V93.7547L302.681 93.6441L302.958 93.81C323.879 94.861 340.289 93.5519 356.643 85.6607L361.302 83.4113V0.0368652H302.055Z" fill="url(#paint18_linear)"/>
<path d="M369.387 347.326V418.015L438.856 377.195V306.487L369.387 347.326Z" fill="url(#paint19_linear)"/>
<path d="M369.424 347.326V418.015L299.993 377.49V306.837L369.424 347.326Z" fill="#330A66"/>
<path d="M299.993 306.837L369.424 347.326L438.856 306.487L369.351 265.961L299.993 306.837Z" fill="#45108A"/>
<path style="mix-blend-mode:screen" d="M369.424 346.22L300.932 306.284L299.993 306.837L369.424 347.326L438.856 306.487L437.917 305.934L369.424 346.22Z" fill="url(#paint20_radial)"/>
<path d="M286.88 394.176V464.865L356.348 424.044V353.336L286.88 394.176Z" fill="url(#paint21_linear)"/>
<path d="M286.916 394.176V464.865L217.466 424.339V353.687L286.916 394.176Z" fill="#330A66"/>
<path d="M217.466 353.687L286.916 394.176L356.348 353.336L286.824 312.811L217.466 353.687Z" fill="#45108A"/>
<path style="mix-blend-mode:screen" d="M286.916 393.069L218.424 353.134L217.466 353.687L286.916 394.176L356.348 353.336L355.39 352.783L286.916 393.069Z" fill="url(#paint22_radial)"/>
<path style="mix-blend-mode:screen" d="M324.91 120.858L255.387 80.3322L212.494 106.2V176.871L281.888 217.36V217.397L281.907 217.378L281.925 217.397V217.36L324.91 191.547V120.858Z" fill="url(#paint23_linear)"/>
<path d="M447.99 394.95V465.658L517.44 424.837V354.129L447.99 394.95Z" fill="url(#paint24_linear)"/>
<path d="M448.027 394.95V465.658L378.577 425.132V354.48L448.027 394.95Z" fill="#330A66"/>
<path d="M378.577 354.48L448.027 394.95L517.44 354.129L447.935 313.604L378.577 354.48Z" fill="#45108A"/>
<path d="M367.435 441.8V512.508L436.885 471.687V400.979L367.435 441.8Z" fill="url(#paint25_linear)"/>
<path d="M367.472 441.8V512.508L298.022 471.982V401.329L367.472 441.8Z" fill="#330A66"/>
<path d="M298.022 401.329L367.472 441.8L436.885 400.979L367.38 360.453L298.022 401.329Z" fill="#45108A"/>
<path style="mix-blend-mode:screen" d="M91.9368 337.388L61.8252 355.291L131.257 395.761L131.238 395.78V466.469L161.461 448.622V377.914L91.9368 337.388Z" fill="url(#paint26_linear)"/>
<path d="M101.458 413.59V484.298L131.681 466.432V395.724L101.458 413.59Z" fill="url(#paint27_linear)"/>
<path d="M101.496 413.59V484.298L32.064 443.772V373.12L101.496 413.59Z" fill="url(#paint28_linear)"/>
<path d="M37.5703 440.601V382.726L95.9702 416.78V474.674L37.5703 440.601Z" fill="#330A66"/>
<path d="M39.5778 439.513V383.906L37.5703 382.726V440.601L95.9702 474.674V472.443L39.5778 439.513Z" fill="url(#paint29_linear)"/>
<path d="M39.5778 439.513L37.5703 440.601L95.9702 474.674V472.443L39.5778 439.513Z" fill="#45108A"/>
<path d="M32.064 373.12L101.496 413.59L131.681 395.724L62.1571 355.199L32.064 373.12Z" fill="url(#paint30_linear)"/>
<path style="mix-blend-mode:screen" d="M101.495 412.484L32.9847 372.548L32.0454 373.12L101.495 413.59L131.681 395.724L130.741 395.19L101.495 412.484Z" fill="url(#paint31_radial)"/>
<path d="M70.0025 432.47V447.921L63.0778 443.901V428.469C60.2728 425.407 58.619 421.464 58.3999 417.315C58.3999 412.152 62.0832 410.069 66.5401 412.668C68.9066 414.207 70.8771 416.283 72.2915 418.727C73.706 421.172 74.5244 423.916 74.6804 426.736C74.6804 430.461 72.765 432.581 70.0025 432.47Z" fill="#43E8E1"/>
<path style="mix-blend-mode:color-dodge" d="M70.0025 432.47V447.921L63.0778 443.901V428.469C60.2728 425.407 58.619 421.464 58.3999 417.315C58.3999 412.152 62.0832 410.069 66.5401 412.668C68.9066 414.207 70.8771 416.283 72.2915 418.727C73.706 421.172 74.5244 423.916 74.6804 426.736C74.6804 430.461 72.765 432.581 70.0025 432.47Z" fill="url(#paint32_radial)"/>
<path style="mix-blend-mode:screen" d="M66.5401 412.668C63.4461 410.825 60.7573 411.304 59.376 413.443L0 445.542V484.943L69.9841 447.958V432.507C72.7467 432.618 74.662 430.497 74.662 426.773C74.5137 423.948 73.7008 421.197 72.2894 418.746C70.878 416.295 68.908 414.213 66.5401 412.668Z" fill="url(#paint33_linear)"/>
<path d="M208.276 442.519V513.227L277.745 472.387V401.698L208.276 442.519Z" fill="url(#paint34_linear)"/>
<path d="M208.332 442.519V513.227L138.882 472.701V402.03L208.332 442.519Z" fill="#330A66"/>
<path style="mix-blend-mode:lighten" opacity="0.2" d="M159.656 450.262V414.143L138.882 402.03V462.487L159.656 450.262Z" fill="url(#paint35_radial)"/>
<path d="M138.882 402.03L208.332 442.519L277.745 401.698L208.24 361.154L138.882 402.03Z" fill="#45108A"/>
<path style="mix-blend-mode:screen" d="M208.332 441.412L139.821 401.477L138.882 402.03L208.332 442.519L277.745 401.698L276.806 401.145L208.332 441.412Z" fill="url(#paint36_radial)"/>
<path d="M129.691 315.742V386.45L199.16 345.611V274.903L129.691 315.742Z" fill="url(#paint37_linear)"/>
<path d="M129.729 315.742V386.45L60.2969 345.925V275.254L129.729 315.742Z" fill="#330A66"/>
<path d="M60.2969 275.254L129.729 315.742L199.16 274.903L129.636 234.378L60.2969 275.254Z" fill="#45108A"/>
<path style="mix-blend-mode:screen" d="M129.729 314.636L61.2361 274.701L60.2969 275.254L129.729 315.742L199.16 274.903L198.221 274.35L129.729 314.636Z" fill="url(#paint38_radial)"/>
<path style="mix-blend-mode:lighten" opacity="0.2" d="M100.059 349.096L88.3088 342.311C83.6309 339.601 79.395 339.324 76.3194 341.057L70.2603 344.745C73.3359 343.104 77.4981 343.417 82.1023 346.072L93.8338 352.857C101.201 357.098 107.407 366.04 109.801 374.982L117.076 379.223V378.651C117.113 367.699 109.488 354.535 100.059 349.096Z" fill="url(#paint39_radial)"/>
<path d="M286.88 488.649V559.357L356.348 518.537V447.829L286.88 488.649Z" fill="url(#paint40_linear)"/>
<path d="M286.916 488.649V559.357L217.466 518.832V448.179L286.916 488.649Z" fill="#330A66"/>
<path d="M217.466 448.179L286.916 488.649L356.348 447.829L286.824 407.303L217.466 448.179Z" fill="#45108A"/>
<path style="mix-blend-mode:screen" d="M286.916 487.543L218.424 447.607L217.466 448.179L286.916 488.649L356.348 447.829L355.39 447.276L286.916 487.543Z" fill="url(#paint41_radial)"/>
<path d="M208.276 361.873V432.581L277.745 391.742V321.034L208.276 361.873Z" fill="url(#paint42_linear)"/>
<path d="M208.332 361.873V432.581L138.882 392.055V321.384L208.332 361.873Z" fill="#330A66"/>
<path d="M138.882 321.384L208.332 361.873L277.745 321.034L208.24 280.508L138.882 321.384Z" fill="#45108A"/>
<path style="mix-blend-mode:screen" d="M208.332 360.767L139.821 320.831L138.882 321.384L208.332 361.873L277.745 321.034L276.806 320.499L208.332 360.767Z" fill="url(#paint43_radial)"/>
<path d="M286.88 465.16V478.712L356.348 437.891V424.339L286.88 465.16Z" fill="url(#paint44_linear)"/>
<path d="M286.916 465.16V478.712L217.466 438.186V424.69L286.916 465.16Z" fill="#330A66"/>
<path d="M217.466 424.69L286.916 465.16L356.348 424.339L286.824 383.795L217.466 424.69Z" fill="#45108A"/>
<path d="M224.133 419.195L286.916 455.794L349.7 418.919L286.843 382.283L224.133 419.195ZM286.916 457.785C286.754 457.788 286.593 457.743 286.456 457.656L221.831 419.988C221.698 419.903 221.589 419.786 221.513 419.647C221.437 419.509 221.397 419.353 221.397 419.195C221.397 419.037 221.437 418.882 221.513 418.743C221.589 418.605 221.698 418.487 221.831 418.402L286.29 380.366C286.432 380.28 286.594 380.234 286.76 380.234C286.926 380.234 287.088 380.28 287.23 380.366L351.91 418.071C352.052 418.148 352.17 418.263 352.253 418.402C352.336 418.542 352.379 418.701 352.379 418.863C352.379 419.026 352.336 419.185 352.253 419.324C352.17 419.464 352.052 419.578 351.91 419.656L287.377 457.656C287.239 457.743 287.079 457.788 286.916 457.785Z" fill="#43E8E1"/>
<path d="M224.134 411.193L286.917 447.81L349.7 410.935L286.843 374.282L224.134 411.193ZM286.917 449.783C286.757 449.784 286.599 449.746 286.456 449.672L221.832 411.986C221.693 411.906 221.579 411.79 221.501 411.651C221.423 411.511 221.385 411.353 221.39 411.193C221.39 411.035 221.431 410.879 221.509 410.74C221.586 410.601 221.697 410.485 221.832 410.401L286.291 372.364C286.434 372.283 286.596 372.241 286.76 372.241C286.925 372.241 287.086 372.283 287.23 372.364L351.91 410.087C352.05 410.166 352.167 410.281 352.248 410.421C352.329 410.56 352.371 410.719 352.37 410.88C352.366 411.04 352.321 411.197 352.241 411.335C352.161 411.474 352.047 411.59 351.91 411.673L287.304 449.672C287.178 449.71 287.047 449.723 286.917 449.709V449.783Z" fill="#43E8E1"/>
<path d="M224.133 403.062L286.916 439.661L349.7 402.786L286.843 366.151L224.133 403.062ZM286.916 441.652C286.754 441.655 286.593 441.61 286.456 441.523L221.831 403.818C221.698 403.733 221.589 403.616 221.513 403.478C221.437 403.339 221.397 403.184 221.397 403.026C221.397 402.868 221.437 402.712 221.513 402.573C221.589 402.435 221.698 402.318 221.831 402.233L286.29 364.196C286.432 364.11 286.594 364.064 286.76 364.064C286.926 364.064 287.088 364.11 287.23 364.196L351.983 401.975C352.125 402.052 352.244 402.167 352.327 402.307C352.409 402.446 352.453 402.605 352.453 402.767C352.453 402.93 352.409 403.089 352.327 403.228C352.244 403.368 352.125 403.482 351.983 403.56L287.377 441.56C287.235 441.634 287.076 441.666 286.916 441.652Z" fill="#43E8E1"/>
<path d="M224.134 394.987L286.917 431.604L349.7 394.729L286.843 358.075L224.134 394.987ZM286.917 433.577C286.757 433.577 286.599 433.539 286.456 433.466L221.832 395.78C221.693 395.7 221.579 395.584 221.501 395.444C221.423 395.305 221.385 395.147 221.39 394.987C221.39 394.828 221.431 394.672 221.509 394.533C221.586 394.395 221.697 394.278 221.832 394.194L286.291 356.157C286.434 356.077 286.596 356.034 286.76 356.034C286.925 356.034 287.086 356.077 287.23 356.157L351.91 393.881C352.05 393.96 352.167 394.075 352.248 394.214C352.329 394.354 352.371 394.512 352.37 394.673C352.366 394.834 352.321 394.99 352.241 395.128C352.161 395.267 352.047 395.383 351.91 395.466L287.304 433.466C287.183 433.529 287.052 433.566 286.917 433.577Z" fill="#43E8E1"/>
<g opacity="0.5">
<path opacity="0.5" d="M224.133 386.93L286.916 423.528L349.7 386.653L286.843 350.018L224.133 386.93ZM286.916 425.519C286.754 425.523 286.593 425.478 286.456 425.39L221.831 387.722C221.698 387.637 221.589 387.52 221.513 387.382C221.437 387.243 221.397 387.088 221.397 386.93C221.397 386.772 221.437 386.616 221.513 386.477C221.589 386.339 221.698 386.222 221.831 386.137L286.29 348.1C286.432 348.014 286.594 347.968 286.76 347.968C286.926 347.968 287.088 348.014 287.23 348.1L351.91 385.805C352.052 385.883 352.17 385.997 352.253 386.137C352.336 386.276 352.379 386.436 352.379 386.598C352.379 386.76 352.336 386.919 352.253 387.059C352.17 387.198 352.052 387.313 351.91 387.391L287.377 425.39C287.239 425.478 287.079 425.523 286.916 425.519Z" fill="#43E8E1"/>
</g>
<path d="M286.88 408.004V419.712L356.348 378.891V367.183L286.88 408.004Z" fill="url(#paint45_linear)"/>
<path d="M286.916 408.004V419.712L217.466 379.186V367.533L286.916 408.004Z" fill="#330A66"/>
<path d="M217.466 367.533L286.916 408.004L356.348 367.183L286.824 326.639L217.466 367.533Z" fill="#45108A"/>
<path style="mix-blend-mode:screen" d="M286.916 406.897L218.424 366.962L217.466 367.533L286.916 408.004L356.348 367.183L355.39 366.63L286.916 406.897Z" fill="url(#paint46_radial)"/>
<path style="mix-blend-mode:lighten" opacity="0.2" d="M356.348 378.891V367.183L306.789 396.296L316.789 402.122L356.348 378.891Z" fill="url(#paint47_radial)"/>
<path opacity="0.3" d="M286.88 408.004V478.712L356.348 437.891V367.183L286.88 408.004Z" fill="url(#paint48_linear)"/>
<path opacity="0.1" d="M286.916 408.004V478.712L217.466 438.186V367.533L286.916 408.004Z" fill="#330A66"/>
<path d="M447.99 314.304V385.012L517.44 344.191V273.484L447.99 314.304Z" fill="url(#paint49_linear)"/>
<path d="M448.027 314.304V385.012L378.577 344.486V273.815L448.027 314.304Z" fill="#330A66"/>
<path d="M378.577 273.815L448.027 314.304L517.44 273.484L447.935 232.958L378.577 273.815Z" fill="#45108A"/>
<path style="mix-blend-mode:screen" d="M448.027 313.198L379.516 273.262L378.577 273.815L448.027 314.304L517.44 273.484L516.501 272.93L448.027 313.198Z" fill="url(#paint50_radial)"/>
<path style="mix-blend-mode:screen" d="M441.195 323.394L371.671 282.868L302.332 323.744V394.415L371.726 434.922V434.941L371.745 434.922L371.763 434.941V434.922L441.195 394.102V323.394Z" fill="url(#paint51_linear)"/>
<path d="M436.793 458.873V472.424L506.261 431.604V418.052L436.793 458.873Z" fill="url(#paint52_linear)"/>
<path d="M436.83 458.873V472.424L367.398 431.899V418.402L436.83 458.873Z" fill="url(#paint53_linear)"/>
<path d="M367.398 418.402L436.83 458.873L506.262 418.052L436.756 377.508L367.398 418.402Z" fill="#FFD7B4"/>
<path style="mix-blend-mode:screen" d="M436.83 457.767L368.338 417.831L367.398 418.402L436.83 458.873L506.262 418.052L505.322 417.499L436.83 457.767Z" fill="url(#paint54_radial)"/>
<path d="M436.793 439.827V453.378L506.261 412.539V398.988L436.793 439.827Z" fill="url(#paint55_linear)"/>
<path d="M436.83 439.827V453.378L367.398 412.853V399.338L436.83 439.827Z" fill="url(#paint56_linear)"/>
<path d="M367.398 399.338L436.83 439.827L506.262 398.988L436.756 358.462L367.398 399.338Z" fill="#FFD7B4"/>
<path style="mix-blend-mode:screen" d="M436.83 438.721L368.338 398.785L367.398 399.338L436.83 439.827L506.262 398.988L505.322 398.435L436.83 438.721Z" fill="url(#paint57_radial)"/>
<path d="M436.793 420.781V434.314L506.261 393.493V379.942L436.793 420.781Z" fill="url(#paint58_linear)"/>
<path d="M436.83 420.781V434.314L367.398 393.788V380.292L436.83 420.781Z" fill="url(#paint59_linear)"/>
<path d="M367.398 380.292L436.83 420.781L506.262 379.942L436.756 339.416L367.398 380.292Z" fill="#FFD7B4"/>
<path style="mix-blend-mode:screen" d="M436.83 419.675L368.338 379.739L367.398 380.292L436.83 420.781L506.262 379.942L505.322 379.389L436.83 419.675Z" fill="url(#paint60_radial)"/>
<path d="M436.793 401.717V415.268L506.261 374.447V360.896L436.793 401.717Z" fill="url(#paint61_linear)"/>
<path d="M436.83 401.717V415.268L367.398 374.742V361.246L436.83 401.717Z" fill="url(#paint62_linear)"/>
<path d="M367.398 361.246L436.83 401.716L506.262 360.896L436.756 320.352L367.398 361.246Z" fill="url(#paint63_linear)"/>
<path d="M378.338 361.209L436.756 326.768L495.322 360.914L436.83 395.319L378.338 361.209Z" fill="#45108A"/>
<path d="M436.756 329.534L492.965 362.297L495.322 360.914L436.756 326.768L378.338 361.209L380.695 362.592L436.756 329.534Z" fill="url(#paint64_linear)"/>
<path d="M436.756 329.534L492.965 362.297L495.322 360.914L436.756 326.768V329.534Z" fill="#330A66"/>
<path style="mix-blend-mode:screen" d="M436.83 400.61L368.338 360.675L367.398 361.246L436.83 401.716L506.262 360.896L505.322 360.343L436.83 400.61Z" fill="url(#paint65_radial)"/>
<path d="M416.977 375.351L420.973 373.046L417.437 371.037L415.596 370.022L411.636 372.327C411.33 372.481 410.993 372.561 410.651 372.561C410.308 372.561 409.971 372.481 409.665 372.327L406.092 370.262C405.975 370.219 405.874 370.142 405.803 370.039C405.731 369.937 405.693 369.815 405.693 369.691C405.693 369.566 405.731 369.444 405.803 369.342C405.874 369.24 405.975 369.162 406.092 369.119L410.071 366.833L405.927 364.436C405.81 364.393 405.708 364.315 405.637 364.213C405.566 364.111 405.527 363.989 405.527 363.864C405.527 363.74 405.566 363.618 405.637 363.516C405.708 363.413 405.81 363.336 405.927 363.293L440.256 343.472C440.561 343.318 440.899 343.238 441.241 343.238C441.583 343.238 441.921 343.318 442.226 343.472L446.37 345.869L450.33 343.565C450.634 343.406 450.972 343.324 451.315 343.324C451.658 343.324 451.996 343.406 452.3 343.565L455.873 345.63C456.426 345.943 456.426 346.441 455.873 346.754L451.914 349.059L455.818 351.308L457.144 352.101L461.14 349.797C461.446 349.643 461.783 349.562 462.126 349.562C462.468 349.562 462.805 349.643 463.111 349.797L466.684 351.88C467.236 352.193 467.236 352.691 466.684 353.005L462.282 355.567C463.159 356.299 463.831 357.246 464.234 358.315C464.602 359.425 464.523 360.636 464.013 361.689C463.272 363.108 462.089 364.247 460.643 364.934C459.11 365.743 457.455 366.297 455.744 366.575C453.135 367.012 450.466 366.949 447.88 366.39C448.579 366.975 449.115 367.73 449.438 368.583C449.76 369.435 449.858 370.356 449.722 371.258C449.436 372.175 448.961 373.022 448.326 373.743C447.691 374.465 446.912 375.044 446.039 375.443C444.173 376.475 442.151 377.191 440.053 377.563C437.772 378.004 435.441 378.115 433.128 377.895C430.887 377.638 428.704 377.015 426.664 376.052L422.465 378.485C422.159 378.639 421.822 378.72 421.48 378.72C421.138 378.72 420.8 378.639 420.494 378.485L416.903 376.42C416.81 376.362 416.735 376.279 416.685 376.181C416.635 376.083 416.613 375.973 416.621 375.864C416.628 375.754 416.665 375.648 416.728 375.558C416.791 375.468 416.877 375.396 416.977 375.351ZM442.613 350.626L434.233 355.475L439.059 358.278C441.932 359.937 443.755 360.933 444.584 361.302C445.921 361.929 447.379 362.256 448.856 362.26C450.226 362.282 451.575 361.932 452.761 361.246C453.884 360.601 454.492 359.9 454.602 359.126C454.713 358.352 454.179 357.596 453.111 356.784C452.448 356.323 450.403 355.088 446.923 353.097L442.613 350.626ZM428.193 358.978L418.487 364.51L425.32 368.455C427.017 369.49 428.776 370.419 430.587 371.239C431.899 371.757 433.303 372.002 434.712 371.958C436.166 371.911 437.584 371.499 438.838 370.76C439.701 370.36 440.388 369.659 440.771 368.787C440.873 368.38 440.867 367.953 440.754 367.549C440.641 367.145 440.425 366.777 440.127 366.482C438.294 364.882 436.271 363.513 434.104 362.408L428.193 358.978Z" fill="#43E8E1"/>
<path style="mix-blend-mode:color-dodge" d="M464.29 358.315C463.887 357.246 463.214 356.299 462.337 355.567L463.203 355.051C462.899 354.893 462.561 354.81 462.218 354.81C461.875 354.81 461.537 354.893 461.232 355.051L457.236 357.356C456.812 357.098 456.389 356.821 455.91 356.563L452.006 354.295L455.965 352.009C456.137 351.919 456.268 351.767 456.334 351.585L455.91 351.327L452.006 349.077L452.429 348.819C452.124 348.665 451.786 348.585 451.444 348.585C451.102 348.585 450.764 348.665 450.459 348.819L446.499 351.106L442.355 348.709C442.049 348.555 441.712 348.474 441.37 348.474C441.028 348.474 440.69 348.555 440.384 348.709L409.463 366.464L410.089 366.814L406.111 369.101C405.951 369.192 405.828 369.335 405.761 369.506L405.945 369.654L410.089 372.032L409.647 372.29C409.952 372.444 410.29 372.524 410.632 372.524C410.974 372.524 411.312 372.444 411.617 372.29L415.577 369.986L417.419 371L420.955 373.009L416.958 375.314C416.873 375.36 416.798 375.423 416.738 375.499C416.678 375.575 416.634 375.663 416.608 375.756L417.419 376.217C418.708 376.973 419.886 377.637 420.955 378.227L420.494 378.504C420.8 378.658 421.137 378.738 421.48 378.738C421.822 378.738 422.159 378.658 422.465 378.504L426.664 376.07C428.704 377.034 430.887 377.657 433.128 377.914C435.44 378.134 437.772 378.022 440.053 377.582C442.151 377.209 444.173 376.493 446.038 375.461C447.174 374.848 448.157 373.984 448.911 372.936C449.21 372.663 449.41 372.301 449.482 371.903C449.569 371.699 449.643 371.49 449.703 371.276C449.84 370.375 449.742 369.454 449.419 368.601C449.097 367.749 448.56 366.993 447.862 366.409C450.448 366.968 453.116 367.03 455.726 366.593C457.437 366.316 459.091 365.761 460.625 364.952C461.82 364.357 462.846 363.469 463.608 362.371C463.241 361.784 462.788 361.256 462.264 360.804L464.419 359.55C464.431 359.134 464.387 358.719 464.29 358.315ZM440.771 368.787C440.394 369.693 439.691 370.423 438.801 370.834C437.547 371.572 436.129 371.984 434.675 372.032C433.266 372.076 431.862 371.831 430.55 371.313C428.739 370.493 426.98 369.563 425.283 368.529L418.45 364.583L428.156 359.052L434.104 362.481C436.271 363.587 438.294 364.956 440.127 366.556C440.413 366.844 440.622 367.199 440.734 367.589C440.847 367.979 440.86 368.391 440.771 368.787ZM452.687 361.246C451.501 361.932 450.152 362.282 448.783 362.26C447.305 362.257 445.847 361.93 444.51 361.301C443.718 360.933 441.895 359.937 438.985 358.278L434.16 355.475L442.539 350.626L446.775 353.078C450.256 355.088 452.3 356.323 452.963 356.766C454.031 357.577 454.529 358.351 454.455 359.107C454.381 359.863 453.847 360.601 452.724 361.246H452.687Z" fill="url(#paint66_radial)"/>
<path d="M369.387 187.528V258.236L438.856 217.397V146.689L369.387 187.528Z" fill="url(#paint67_linear)"/>
<path d="M369.424 187.528V258.236L299.993 217.71V147.039L369.424 187.528Z" fill="#330A66"/>
<path d="M299.993 147.039L369.424 187.528L438.856 146.689L369.351 106.163L299.993 147.039Z" fill="#45108A"/>
<path style="mix-blend-mode:screen" d="M369.424 186.422L300.932 146.486L299.993 147.039L369.424 187.528L438.856 146.689L437.917 146.154L369.424 186.422Z" fill="url(#paint68_radial)"/>
<g style="mix-blend-mode:multiply">
<path d="M505.359 266.367H504.825L491.528 259.914C490.957 257.793 487.624 256.226 483.462 256.005L449.39 239.411L447.162 244.02L472.946 256.521L456.481 253.571C455.45 251.617 452.061 250.179 447.972 250.179C443.073 250.179 439.114 252.225 439.114 254.77C439.114 256.927 442.042 258.734 445.965 259.213L444.86 300.273C441.508 300.919 439.114 302.578 439.114 304.532C439.114 307.058 443.073 309.123 447.972 309.123C452.871 309.123 456.831 307.058 456.831 304.532C456.817 304.174 456.73 303.822 456.573 303.5L505.433 275.125C506.087 275.199 506.745 275.236 507.404 275.235C511.253 275.235 514.476 273.981 515.71 272.211L505.359 266.367ZM449.98 297.987L451.03 259.158C451.891 258.994 452.731 258.734 453.534 258.383L474.456 262.071C474.712 262.446 475.022 262.782 475.377 263.066L471.693 266.422H470.883C466.002 266.422 462.043 268.469 462.043 270.995C462.043 272.34 463.203 273.557 465.026 274.387L449.98 297.987ZM456.076 297.987L470.349 275.604H470.865C475.763 275.604 479.723 273.557 479.723 271.031C479.654 270.391 479.419 269.781 479.041 269.26C478.663 268.739 478.155 268.326 477.568 268.063L480.865 265.076C481.476 265.148 482.091 265.185 482.707 265.187C484.599 265.202 486.476 264.845 488.232 264.136L498.895 269.317C498.594 269.752 498.422 270.263 498.398 270.792C498.429 271.548 498.752 272.262 499.3 272.783L456.076 297.987Z" fill="#BCBCD6"/>
</g>
<g opacity="0.7">
<path opacity="0.7" d="M458.862 196.829L444.589 233.251L450.419 235.541L464.691 199.119L458.862 196.829Z" fill="#8770B8"/>
<g style="mix-blend-mode:screen" opacity="0.5">
<path d="M459.632 198.569L446.699 231.556L449.099 232.499L462.032 199.512L459.632 198.569Z" fill="#8770B8"/>
</g>
</g>
<g opacity="0.7">
<path opacity="0.7" d="M430.494 264.744C429.858 264.744 429.237 264.55 428.714 264.187C428.191 263.825 427.791 263.312 427.566 262.716L414.674 228.146C414.417 227.431 414.417 226.648 414.674 225.933L426.645 194.129C426.699 193.99 426.761 193.855 426.83 193.723L444.786 160.996L450.311 164.02L432.465 196.562L420.991 227.058L432.52 258.162L470.238 251.451L471.325 257.627L431.121 264.707L430.494 264.744Z" fill="#8770B8"/>
<g style="mix-blend-mode:screen" opacity="0.5">
<path d="M430.126 262.163C429.866 262.164 429.611 262.085 429.397 261.937C429.183 261.788 429.019 261.578 428.929 261.333L416.037 226.763C415.927 226.466 415.927 226.139 416.037 225.841L428.008 194.055C427.998 193.994 427.998 193.931 428.008 193.87L445.081 162.766L447.327 164.02L430.31 195.05L418.671 226.302L431.028 259.49L468.396 252.852L468.838 255.396L430.439 262.145L430.126 262.163Z" fill="#8770B8"/>
</g>
</g>
<g opacity="0.7">
<path opacity="0.7" d="M482.062 222.338C481.64 222.335 481.222 222.249 480.834 222.085C480.445 221.92 480.092 221.68 479.796 221.379L460.367 201.098L431.323 198.738L431.821 192.488L462.061 194.958C462.825 195.021 463.539 195.362 464.068 195.917L482.338 215.037L505.893 196.101L509.816 200.987L484.032 221.729C483.462 222.147 482.768 222.361 482.062 222.338Z" fill="#8770B8"/>
<g style="mix-blend-mode:screen" opacity="0.5">
<path d="M481.693 219.757C481.521 219.76 481.351 219.727 481.192 219.66C481.033 219.594 480.89 219.495 480.772 219.369L460.845 198.517L432.944 196.249L433.146 193.668L461.545 195.991C461.861 196.007 462.159 196.146 462.374 196.378L481.804 216.659L505.23 197.871L506.851 199.881L482.504 219.443C482.279 219.641 481.992 219.752 481.693 219.757Z" fill="#8770B8"/>
</g>
</g>
<g opacity="0.7">
<path opacity="0.7" d="M505.23 259.213L483.13 226.302L473.737 255.507L467.789 253.663L479.133 218.319C479.32 217.771 479.654 217.286 480.098 216.916C480.543 216.547 481.081 216.308 481.653 216.226C482.225 216.144 482.809 216.222 483.339 216.451C483.87 216.681 484.326 217.053 484.659 217.526L510.442 255.784L505.23 259.213Z" fill="#8770B8"/>
<g style="mix-blend-mode:screen" opacity="0.5">
<path d="M482.117 221.398L472.08 252.446L469.612 251.654L480.423 218.079C480.493 217.849 480.628 217.643 480.81 217.487C480.993 217.33 481.216 217.229 481.454 217.194H481.657C481.865 217.196 482.07 217.249 482.253 217.348C482.436 217.448 482.592 217.591 482.706 217.765L507.514 254.475L505.377 255.913L482.117 221.398Z" fill="#8770B8"/>
</g>
</g>
<g opacity="0.7">
<path opacity="0.7" d="M447.53 237.549C447.133 237.547 446.739 237.472 446.369 237.328C445.982 237.171 445.629 236.939 445.332 236.645C445.034 236.35 444.799 235.999 444.638 235.613L429.536 198.738L388.356 201.504C387.656 201.553 386.959 201.365 386.377 200.97C385.796 200.575 385.365 199.996 385.152 199.325C384.94 198.655 384.958 197.933 385.205 197.274C385.453 196.616 385.914 196.06 386.515 195.696L445.909 159.743L449.15 165.108L400.788 194.387L431.36 192.322C432.005 192.269 432.651 192.418 433.209 192.748C433.766 193.078 434.208 193.574 434.472 194.165L449.206 230.045L481.398 215.756L483.958 221.471L448.819 237.291C448.412 237.468 447.973 237.556 447.53 237.549Z" fill="#8770B8"/>
<g style="mix-blend-mode:screen" opacity="0.5">
<path d="M447.161 234.968C447.01 235.004 446.852 235.004 446.701 234.968C446.374 234.838 446.111 234.587 445.964 234.267L430.365 196.249L387.841 199.107C387.552 199.124 387.267 199.044 387.03 198.879C386.792 198.714 386.617 198.474 386.532 198.198C386.447 197.922 386.457 197.625 386.561 197.355C386.665 197.085 386.856 196.858 387.104 196.71L444.915 161.679L446.259 163.891L399.462 192.156L400.548 195.585L431.12 193.52C431.388 193.506 431.653 193.575 431.88 193.716C432.108 193.858 432.286 194.066 432.391 194.313L447.843 231.962L480.109 217.434L481.159 219.794L447.696 234.857C447.527 234.931 447.345 234.968 447.161 234.968Z" fill="#8770B8"/>
</g>
</g>
<g opacity="0.7">
<path opacity="0.7" d="M447.53 297.01C446.966 297.01 446.412 296.857 445.928 296.567L386.533 261.075C386.068 260.797 385.682 260.403 385.414 259.931C385.146 259.46 385.005 258.926 385.005 258.383V198.461H391.267V256.613L447.53 290.225L500.737 258.162L446.425 237.401L448.654 231.538L508.914 254.475C509.464 254.683 509.945 255.043 510.301 255.512C510.657 255.982 510.873 256.543 510.925 257.13C510.977 257.717 510.863 258.307 510.595 258.832C510.327 259.357 509.917 259.796 509.411 260.098L449.096 296.512C448.627 296.814 448.087 296.985 447.53 297.01Z" fill="#8770B8"/>
<g style="mix-blend-mode:screen" opacity="0.5">
<path d="M447.162 294.429C446.928 294.43 446.698 294.366 446.499 294.244L387.104 258.752C386.912 258.639 386.753 258.477 386.643 258.283C386.533 258.089 386.476 257.869 386.478 257.646V199.568H389.056V256.908L447.162 291.645L504.549 256.982L448.432 235.539L449.353 233.142L507.937 255.525C508.163 255.611 508.361 255.758 508.508 255.95C508.654 256.143 508.744 256.372 508.766 256.613C508.786 256.854 508.738 257.096 508.628 257.312C508.517 257.527 508.348 257.707 508.14 257.83L447.825 294.244C447.627 294.369 447.396 294.433 447.162 294.429Z" fill="#8770B8"/>
</g>
</g>
<g opacity="0.7">
<path opacity="0.7" d="M506.206 201.135L455.026 169.791L464.897 197.318L459.022 199.439L446.13 163.485C445.917 162.878 445.897 162.219 446.073 161.6C446.249 160.98 446.612 160.43 447.113 160.026C447.613 159.622 448.227 159.383 448.869 159.342C449.511 159.301 450.15 159.46 450.698 159.798L509.484 195.899L506.206 201.135Z" fill="#8770B8"/>
<g style="mix-blend-mode:screen" opacity="0.5">
<path d="M451.158 164.647L462.208 195.401L459.777 196.267L447.512 162.047C447.436 161.855 447.408 161.646 447.432 161.44C447.456 161.234 447.531 161.038 447.65 160.868C447.768 160.698 447.927 160.56 448.112 160.467C448.297 160.373 448.502 160.327 448.709 160.333C448.949 160.328 449.185 160.392 449.39 160.517L506.612 195.659L505.249 197.871L451.158 164.647Z" fill="#8770B8"/>
</g>
</g>
<g opacity="0.7">
<path opacity="0.7" d="M389.315 261.296L386.976 255.489L444.455 232.35V162.822H450.716V234.414C450.718 235.04 450.533 235.651 450.186 236.17C449.838 236.689 449.343 237.092 448.764 237.328L389.315 261.296Z" fill="#8770B8"/>
<g style="mix-blend-mode:screen" opacity="0.5">
<path d="M389.001 255.765L445.873 232.81V163.928H448.451V233.677C448.454 233.936 448.378 234.189 448.233 234.403C448.088 234.617 447.881 234.782 447.641 234.875L389.959 258.162L389.001 255.765Z" fill="#8770B8"/>
</g>
</g>
<g opacity="0.7">
<path opacity="0.7" d="M390.432 196.364L385.924 200.716L415.085 230.989L419.592 226.637L390.432 196.364Z" fill="#8770B8"/>
<g style="mix-blend-mode:screen" opacity="0.5">
<path d="M389.956 198.092L388.099 199.883L414.688 227.515L416.545 225.724L389.956 198.092Z" fill="#8770B8"/>
</g>
</g>
<g opacity="0.7">
<path opacity="0.7" d="M433.147 263.288L427.879 260.006L444.915 232.81C445.315 232.172 445.932 231.699 446.653 231.479C447.374 231.259 448.149 231.306 448.838 231.612L476.003 243.596L473.48 249.33L448.782 238.434L433.147 263.288Z" fill="#8770B8"/>
<g style="mix-blend-mode:screen" opacity="0.5">
<path d="M430.016 258.623L446.075 232.995C446.189 232.809 446.349 232.655 446.539 232.548C446.729 232.442 446.944 232.386 447.162 232.386C447.34 232.386 447.516 232.423 447.677 232.497L473.166 243.744L472.117 246.104L447.659 235.318L432.207 260.006L430.016 258.623Z" fill="#8770B8"/>
</g>
</g>
<g opacity="0.7">
<path opacity="0.7" d="M447.53 297.01C446.971 297.004 446.424 296.846 445.948 296.554C445.471 296.262 445.082 295.846 444.823 295.35L428.598 264.615L387.952 261.518C387.364 261.473 386.801 261.262 386.328 260.91C385.855 260.557 385.492 260.077 385.281 259.526C385.068 258.976 385.014 258.376 385.124 257.796C385.235 257.215 385.506 256.678 385.907 256.245L415.374 224.901L419.942 229.197L394.913 255.765L430.734 258.494C431.262 258.53 431.771 258.702 432.213 258.992C432.655 259.283 433.014 259.683 433.257 260.153L447.641 287.385L472.08 244.85C472.438 244.226 472.999 243.745 473.67 243.486C474.341 243.228 475.08 243.208 475.763 243.43L504.807 252.981V201.135H461.895V194.866H507.937C508.349 194.866 508.756 194.947 509.136 195.105C509.515 195.262 509.861 195.493 510.151 195.784C510.442 196.075 510.673 196.421 510.83 196.801C510.987 197.181 511.068 197.589 511.068 198V257.314C511.071 257.81 510.955 258.299 510.731 258.741C510.506 259.184 510.18 259.566 509.778 259.856C509.376 260.146 508.911 260.337 508.421 260.411C507.931 260.485 507.431 260.441 506.961 260.282L476.242 250.179L450.348 295.443C450.063 295.934 449.651 296.339 449.155 296.615C448.659 296.89 448.097 297.027 447.53 297.01Z" fill="#8770B8"/>
<g style="mix-blend-mode:screen" opacity="0.5">
<path d="M447.107 294.429C446.881 294.422 446.662 294.355 446.471 294.235C446.28 294.115 446.125 293.946 446.02 293.746L429.316 262.108L387.676 258.936C387.434 258.919 387.202 258.833 387.006 258.69C386.811 258.546 386.66 258.351 386.571 258.125C386.483 257.896 386.461 257.647 386.507 257.407C386.553 257.166 386.664 256.942 386.828 256.761L414.988 226.818L416.829 228.662L390.475 256.705L430.126 259.711C430.347 259.726 430.56 259.799 430.744 259.921C430.928 260.044 431.077 260.213 431.176 260.411L447.125 290.594L473.111 245.145C473.229 244.952 473.394 244.791 473.59 244.678C473.787 244.565 474.008 244.504 474.235 244.5C474.368 244.472 474.506 244.472 474.64 244.5L506.096 254.843V198.609H463.185V196.028H507.385C507.727 196.028 508.055 196.164 508.297 196.406C508.539 196.648 508.674 196.976 508.674 197.318V256.632C508.672 256.834 508.623 257.032 508.53 257.212C508.437 257.391 508.304 257.546 508.14 257.664C507.923 257.83 507.658 257.921 507.385 257.922C507.252 257.95 507.114 257.95 506.98 257.922L474.843 247.358L448.193 293.912C448.081 294.111 447.918 294.276 447.72 294.389C447.522 294.503 447.298 294.561 447.07 294.558L447.107 294.429Z" fill="#8770B8"/>
</g>
</g>
<path d="M397.51 258.383C397.514 260.24 396.967 262.056 395.939 263.602C394.911 265.148 393.449 266.354 391.736 267.067C390.023 267.78 388.138 267.968 386.318 267.608C384.499 267.248 382.827 266.356 381.514 265.044C380.201 263.733 379.306 262.06 378.943 260.239C378.58 258.418 378.765 256.531 379.473 254.815C380.182 253.099 381.384 251.632 382.926 250.6C384.468 249.568 386.281 249.017 388.136 249.017C390.619 249.017 393 250.003 394.758 251.759C396.515 253.515 397.505 255.898 397.51 258.383Z" fill="url(#paint69_radial)"/>
<path d="M397.51 198.461C397.514 200.318 396.967 202.135 395.939 203.68C394.911 205.226 393.449 206.432 391.736 207.145C390.023 207.858 388.138 208.046 386.318 207.686C384.499 207.326 382.827 206.434 381.514 205.122C380.201 203.811 379.306 202.138 378.943 200.317C378.58 198.497 378.765 196.609 379.473 194.893C380.182 193.177 381.384 191.71 382.926 190.678C384.468 189.646 386.281 189.095 388.136 189.095C390.619 189.095 393 190.081 394.758 191.837C396.515 193.593 397.505 195.976 397.51 198.461Z" fill="url(#paint70_radial)"/>
<path d="M456.905 234.415C456.908 236.271 456.362 238.088 455.334 239.633C454.306 241.179 452.843 242.385 451.131 243.098C449.418 243.811 447.533 244 445.713 243.64C443.893 243.28 442.221 242.387 440.908 241.075C439.596 239.764 438.701 238.092 438.338 236.271C437.975 234.45 438.159 232.562 438.868 230.846C439.577 229.13 440.779 227.663 442.321 226.631C443.863 225.599 445.676 225.048 447.53 225.048C450.013 225.048 452.395 226.034 454.152 227.79C455.91 229.546 456.9 231.929 456.905 234.415Z" fill="url(#paint71_radial)"/>
<path d="M439.869 261.61C439.873 263.467 439.326 265.283 438.298 266.829C437.27 268.374 435.808 269.58 434.095 270.293C432.382 271.006 430.497 271.195 428.677 270.835C426.858 270.475 425.186 269.583 423.873 268.271C422.56 266.959 421.665 265.287 421.302 263.466C420.939 261.645 421.123 259.757 421.832 258.041C422.541 256.325 423.743 254.859 425.285 253.826C426.827 252.794 428.64 252.244 430.495 252.244C432.978 252.244 435.359 253.23 437.117 254.986C438.874 256.742 439.864 259.124 439.869 261.61Z" fill="url(#paint72_radial)"/>
<path d="M517.22 198.461C517.223 200.318 516.677 202.135 515.649 203.68C514.621 205.226 513.158 206.432 511.446 207.145C509.733 207.858 507.847 208.046 506.028 207.686C504.208 207.326 502.536 206.434 501.223 205.122C499.911 203.811 499.016 202.138 498.653 200.317C498.289 198.497 498.474 196.609 499.183 194.893C499.892 193.177 501.094 191.71 502.635 190.678C504.177 189.646 505.991 189.095 507.845 189.095C510.328 189.095 512.71 190.081 514.467 191.837C516.225 193.593 517.215 195.976 517.22 198.461Z" fill="url(#paint73_radial)"/>
<path d="M517.22 257.461C517.223 259.318 516.677 261.135 515.649 262.68C514.621 264.226 513.158 265.432 511.446 266.145C509.733 266.858 507.847 267.047 506.028 266.686C504.208 266.326 502.536 265.434 501.223 264.122C499.911 262.811 499.016 261.138 498.653 259.318C498.289 257.497 498.474 255.609 499.183 253.893C499.892 252.177 501.094 250.71 502.635 249.678C504.177 248.646 505.991 248.095 507.845 248.095C510.328 248.095 512.71 249.081 514.467 250.837C516.225 252.593 517.215 254.976 517.22 257.461Z" fill="url(#paint74_radial)"/>
<path d="M456.905 293.875C456.908 295.732 456.362 297.549 455.334 299.094C454.306 300.64 452.843 301.846 451.131 302.559C449.418 303.272 447.533 303.461 445.713 303.101C443.893 302.741 442.221 301.848 440.908 300.536C439.596 299.225 438.701 297.553 438.338 295.732C437.975 293.911 438.159 292.023 438.868 290.307C439.577 288.591 440.779 287.124 442.321 286.092C443.863 285.06 445.676 284.509 447.53 284.509C450.013 284.509 452.395 285.495 454.152 287.251C455.91 289.007 456.9 291.39 456.905 293.875Z" fill="url(#paint75_radial)"/>
<path d="M456.905 162.508C456.908 164.365 456.362 166.181 455.334 167.727C454.306 169.273 452.843 170.479 451.131 171.192C449.418 171.905 447.533 172.093 445.713 171.733C443.893 171.373 442.221 170.481 440.908 169.169C439.596 167.857 438.701 166.185 438.338 164.364C437.975 162.543 438.159 160.655 438.868 158.94C439.577 157.224 440.779 155.757 442.321 154.725C443.863 153.693 445.676 153.142 447.53 153.142C450.013 153.142 452.395 154.128 454.152 155.884C455.91 157.64 456.9 160.022 456.905 162.508Z" fill="url(#paint76_radial)"/>
<path d="M471.178 198C471.181 199.857 470.635 201.674 469.607 203.219C468.579 204.765 467.116 205.971 465.404 206.684C463.691 207.397 461.805 207.586 459.986 207.225C458.166 206.865 456.494 205.973 455.181 204.661C453.869 203.35 452.974 201.677 452.611 199.857C452.247 198.036 452.432 196.148 453.141 194.432C453.85 192.716 455.052 191.249 456.593 190.217C458.135 189.185 459.949 188.634 461.803 188.634C464.286 188.634 466.668 189.62 468.425 191.376C470.183 193.132 471.173 195.515 471.178 198Z" fill="url(#paint77_radial)"/>
<path d="M491.436 219.204C491.44 221.06 490.893 222.877 489.865 224.422C488.837 225.968 487.374 227.174 485.662 227.887C483.949 228.6 482.064 228.789 480.244 228.429C478.425 228.069 476.753 227.176 475.44 225.865C474.127 224.553 473.232 222.881 472.869 221.06C472.506 219.239 472.69 217.351 473.399 215.635C474.108 213.919 475.31 212.452 476.852 211.42C478.394 210.388 480.207 209.837 482.062 209.837C484.545 209.837 486.926 210.824 488.684 212.579C490.441 214.335 491.431 216.718 491.436 219.204Z" fill="url(#paint78_radial)"/>
<path d="M480.146 253.774C480.15 255.632 479.603 257.449 478.574 258.995C477.546 260.541 476.082 261.747 474.368 262.459C472.654 263.172 470.768 263.359 468.948 262.998C467.128 262.636 465.456 261.742 464.144 260.428C462.832 259.115 461.938 257.441 461.577 255.619C461.216 253.796 461.403 251.908 462.115 250.192C462.827 248.477 464.031 247.011 465.576 245.982C467.12 244.952 468.935 244.404 470.791 244.408C473.27 244.413 475.647 245.401 477.401 247.156C479.154 248.912 480.142 251.291 480.146 253.774Z" fill="url(#paint79_radial)"/>
<path d="M426.977 227.039C426.981 228.896 426.434 230.713 425.406 232.258C424.378 233.804 422.916 235.01 421.203 235.723C419.49 236.436 417.605 236.625 415.785 236.265C413.966 235.905 412.294 235.012 410.981 233.7C409.668 232.389 408.773 230.717 408.41 228.896C408.047 227.075 408.231 225.187 408.94 223.471C409.649 221.755 410.851 220.288 412.393 219.256C413.935 218.224 415.748 217.673 417.603 217.673C420.086 217.673 422.467 218.659 424.225 220.415C425.982 222.171 426.972 224.554 426.977 227.039Z" fill="url(#paint80_radial)"/>
<path d="M438.93 195.235C438.933 197.092 438.387 198.908 437.359 200.454C436.331 201.999 434.868 203.205 433.156 203.918C431.443 204.631 429.558 204.82 427.738 204.46C425.918 204.1 424.246 203.207 422.933 201.896C421.621 200.584 420.726 198.912 420.363 197.091C419.999 195.27 420.184 193.382 420.893 191.666C421.602 189.95 422.803 188.483 424.345 187.451C425.887 186.419 427.701 185.869 429.555 185.869C432.038 185.869 434.42 186.855 436.177 188.611C437.935 190.367 438.925 192.749 438.93 195.235Z" fill="url(#paint81_radial)"/>
<path d="M210.247 188.247V258.955L279.716 218.116V147.408L210.247 188.247Z" fill="url(#paint82_linear)"/>
<path d="M210.284 188.247V258.955L140.852 218.429V147.758L210.284 188.247Z" fill="#330A66"/>
<path d="M140.852 147.758L210.284 188.247L279.715 147.408L210.192 106.882L140.852 147.758Z" fill="#45108A"/>
<path style="mix-blend-mode:screen" d="M210.284 187.141L141.791 147.205L140.852 147.758L210.284 188.247L279.715 147.408L278.776 146.855L210.284 187.141Z" fill="url(#paint83_radial)"/>
<path d="M286.88 234.378V305.086L356.348 264.246V193.539L286.88 234.378Z" fill="url(#paint84_linear)"/>
<path d="M286.916 234.378V305.085L217.466 264.56V193.889L286.916 234.378Z" fill="#330A66"/>
<path d="M217.466 193.889L286.916 234.378L356.348 193.539L286.824 153.013L217.466 193.889Z" fill="#45108A"/>
<path style="mix-blend-mode:screen" d="M286.916 233.271L218.424 193.336L217.466 193.889L286.916 234.378L356.348 193.539L355.39 192.985L286.916 233.271Z" fill="url(#paint85_radial)"/>
<path d="M367.435 280.508V351.216L436.885 310.377V239.688L367.435 280.508Z" fill="url(#paint86_linear)"/>
<path d="M367.472 280.508V351.216L298.022 310.69V240.02L367.472 280.508Z" fill="#330A66"/>
<path d="M298.022 240.019L367.472 280.508L436.885 239.688L367.38 199.144L298.022 240.019Z" fill="#45108A"/>
<path style="mix-blend-mode:screen" d="M367.472 279.402L298.98 239.466L298.022 240.02L367.472 280.508L436.885 239.688L435.946 239.135L367.472 279.402Z" fill="url(#paint87_radial)"/>
<path style="mix-blend-mode:lighten" opacity="0.2" d="M368.117 280.103L367.435 280.508V286.5L416.848 315.318L367.435 344.357V351.216L428.505 315.318L368.117 280.103Z" fill="url(#paint88_radial)"/>
<path style="mix-blend-mode:lighten" opacity="0.2" d="M367.435 333.922L399.057 315.632C399.174 315.589 399.275 315.511 399.347 315.409C399.418 315.307 399.456 315.185 399.456 315.06C399.456 314.935 399.418 314.814 399.347 314.711C399.275 314.609 399.174 314.531 399.057 314.489L394.913 312.092L398.873 309.805C398.99 309.763 399.091 309.685 399.163 309.583C399.234 309.48 399.272 309.359 399.272 309.234C399.272 309.109 399.234 308.987 399.163 308.885C399.091 308.783 398.99 308.705 398.873 308.662L395.3 306.597C394.994 306.443 394.657 306.363 394.315 306.363C393.973 306.363 393.635 306.443 393.329 306.597L389.351 308.884L387.62 307.888L384.084 305.86L388.081 303.555C388.615 303.242 388.615 302.744 388.081 302.43L384.508 300.347C384.202 300.193 383.865 300.113 383.522 300.113C383.18 300.113 382.843 300.193 382.537 300.347L378.32 302.781C376.273 301.852 374.09 301.26 371.855 301.029C370.391 300.891 368.918 300.891 367.454 301.029V307.519C368.375 307.152 369.354 306.946 370.345 306.911C371.754 306.849 373.161 307.088 374.471 307.611C376.287 308.439 378.052 309.375 379.756 310.414L386.57 314.36L376.883 319.891L370.934 316.443C369.535 315.656 368.375 314.956 367.454 314.341V321.421L370.787 323.431L367.398 325.385L367.435 333.922Z" fill="url(#paint89_radial)"/>
<path d="M129.691 235.097V305.805L199.16 264.965V194.258L129.691 235.097Z" fill="url(#paint90_linear)"/>
<path d="M129.729 235.097V305.805L60.2969 265.279V194.608L129.729 235.097Z" fill="#330A66"/>
<path d="M60.2969 194.608L129.729 235.097L199.16 194.258L129.636 153.732L60.2969 194.608Z" fill="#45108A"/>
<path style="mix-blend-mode:screen" d="M129.729 233.99L61.2361 194.055L60.2969 194.608L129.729 235.097L199.16 194.258L198.221 193.704L129.729 233.99Z" fill="url(#paint91_radial)"/>
<path d="M208.276 281.227V351.935L277.745 311.096V240.388L208.276 281.227Z" fill="url(#paint92_linear)"/>
<path d="M208.332 281.227V351.935L138.882 311.41V240.739L208.332 281.227Z" fill="#330A66"/>
<path d="M138.882 240.739L208.332 281.227L277.745 240.388L208.24 199.863L138.882 240.739Z" fill="#45108A"/>
<path d="M208.369 317.641V351.696L277.708 311.207V277.153L208.369 317.641Z" fill="url(#paint93_linear)"/>
<path d="M212.623 344.284V320.075L273.399 284.546V308.755L212.623 344.284ZM215.883 321.956V338.55L270.194 306.837V290.243L215.883 321.956Z" fill="url(#paint94_linear)"/>
<path d="M208.405 317.641V351.695L138.845 311.096V277.097L208.405 317.641Z" fill="url(#paint95_linear)"/>
<path d="M144.72 307.704V287.33L202.53 321.034V341.444L144.72 307.704Z" fill="#25054D"/>
<path d="M204.169 344.302L143.081 308.644V284.472L204.169 320.075V344.302ZM146.359 306.763L200.891 338.586V321.993L146.359 290.188V306.763Z" fill="url(#paint96_linear)"/>
<path d="M194.63 323.099L196.858 324.39V321.808L194.63 320.518V323.099Z" fill="#2AF6FF"/>
<path d="M190.431 320.665L192.659 321.956V319.393L190.431 318.102V320.665Z" fill="#2AF6FF"/>
<path d="M186.231 318.231L188.46 319.522V316.959L186.231 315.669V318.231Z" fill="#4B61B8"/>
<path d="M182.014 315.798L184.261 317.107V314.525L182.014 313.235V315.798Z" fill="#25054D"/>
<path d="M177.815 313.382L180.062 314.673V312.092L177.815 310.801V313.382Z" fill="#25054D"/>
<path d="M173.616 310.949L175.844 312.239V309.676L173.616 308.367V310.949Z" fill="#4B61B8"/>
<path d="M169.417 308.515L171.645 309.806V307.243L169.417 305.952V308.515Z" fill="#4B61B8"/>
<path d="M165.2 306.081L167.447 307.372V304.809L165.2 303.518V306.081Z" fill="#4B61B8"/>
<path d="M161 303.647L163.247 304.956V302.375L161 301.085V303.647Z" fill="#25054D"/>
<path d="M156.801 301.232L159.03 302.523V299.941L156.801 298.651V301.232Z" fill="#4B61B8"/>
<path d="M152.602 298.798L154.83 300.089V297.526L152.602 296.217V298.798Z" fill="#2AF6FF"/>
<path d="M148.385 296.365L150.632 297.655V295.092L148.385 293.802V296.365Z" fill="#2AF6FF"/>
<path d="M194.63 327.671L196.858 328.962V326.381L194.63 325.09V327.671Z" fill="#4B61B8"/>
<path d="M190.431 325.238L192.659 326.528V323.947L190.431 322.656V325.238Z" fill="#2AF6FF"/>
<path d="M186.231 322.804L188.46 324.095V321.532L186.231 320.241V322.804Z" fill="#2AF6FF"/>
<path d="M182.014 320.37L184.261 321.661V319.098L182.014 317.807V320.37Z" fill="#25054D"/>
<path d="M177.815 317.936L180.062 319.245V316.664L177.815 315.374V317.936Z" fill="#2AF6FF"/>
<path d="M173.616 315.521L175.844 316.812V314.23L173.616 312.94V315.521Z" fill="#2AF6FF"/>
<path d="M169.417 313.087L171.645 314.378V311.815L169.417 310.506V313.087Z" fill="#2AF6FF"/>
<path d="M165.2 310.654L167.447 311.944V309.381L165.2 308.091V310.654Z" fill="#4B61B8"/>
<path d="M161 308.22L163.247 309.51V306.948L161 305.657V308.22Z" fill="#4B61B8"/>
<path d="M156.801 305.786L159.03 307.095V304.514L156.801 303.223V305.786Z" fill="#4B61B8"/>
<path d="M152.602 303.371L154.83 304.661V302.08L152.602 300.79V303.371Z" fill="#4B61B8"/>
<path d="M148.385 300.937L150.632 302.228V299.665L148.385 298.356V300.937Z" fill="#4B61B8"/>
<path d="M194.63 332.189L196.858 333.498V330.916L194.63 329.626V332.189Z" fill="#2AF6FF"/>
<path d="M190.431 329.773L192.659 331.064V328.483L190.431 327.192V329.773Z" fill="#4B61B8"/>
<path d="M186.231 327.34L188.46 328.63V326.049L186.231 324.758V327.34Z" fill="#4B61B8"/>
<path d="M182.014 324.906L184.261 326.196V323.634L182.014 322.343V324.906Z" fill="#4B61B8"/>
<path d="M177.815 322.472L180.062 323.763V321.2L177.815 319.909V322.472Z" fill="#4B61B8"/>
<path d="M173.616 320.057L175.844 321.347V318.766L173.616 317.475V320.057Z" fill="#4B61B8"/>
<path d="M169.417 317.623L171.645 318.914V316.332L169.417 315.042V317.623Z" fill="#25054D"/>
<path d="M165.2 315.189L167.447 316.48V313.917L165.2 312.626V315.189Z" fill="#2AF6FF"/>
<path d="M161 312.755L163.247 314.046V311.483L161 310.193V312.755Z" fill="#4B61B8"/>
<path d="M156.801 310.322L159.03 311.612V309.05L156.801 307.759V310.322Z" fill="#4B61B8"/>
<path d="M152.602 307.906L154.83 309.197V306.616L152.602 305.325V307.906Z" fill="#2AF6FF"/>
<path d="M148.385 305.473L150.632 306.763V304.201L148.385 302.891V305.473Z" fill="#2AF6FF"/>
<path d="M221.574 323.099L219.327 324.39V321.808L221.574 320.518V323.099Z" fill="#2AF6FF"/>
<path d="M225.772 320.665L223.544 321.956V319.393L225.772 318.102V320.665Z" fill="#25054D"/>
<path d="M229.99 318.231L227.743 319.522V316.959L229.99 315.669V318.231Z" fill="#4B61B8"/>
<path d="M234.189 315.798L231.942 317.107V314.525L234.189 313.235V315.798Z" fill="#25054D"/>
<path d="M238.388 313.382L236.142 314.673V312.092L238.388 310.801V313.382Z" fill="#25054D"/>
<path d="M242.587 310.949L240.358 312.239V309.676L242.587 308.367V310.949Z" fill="#4B61B8"/>
<path d="M246.786 308.515L244.558 309.806V307.243L246.786 305.952V308.515Z" fill="#4B61B8"/>
<path d="M251.004 306.081L248.757 307.372V304.809L251.004 303.518V306.081Z" fill="#4B61B8"/>
<path d="M255.203 303.647L252.956 304.956V302.375L255.203 301.085V303.647Z" fill="#25054D"/>
<path d="M259.402 301.232L257.173 302.523V299.941L259.402 298.651V301.232Z" fill="#25054D"/>
<path d="M263.6 298.798L261.372 300.089V297.526L263.6 296.217V298.798Z" fill="#2AF6FF"/>
<path d="M267.818 296.365L265.571 297.655V295.092L267.818 293.802V296.365Z" fill="#2AF6FF"/>
<path d="M221.574 327.671L219.327 328.962V326.381L221.574 325.09V327.671Z" fill="#4B61B8"/>
<path d="M225.772 325.238L223.544 326.528V323.947L225.772 322.656V325.238Z" fill="#25054D"/>
<path d="M229.99 322.804L227.743 324.095V321.532L229.99 320.241V322.804Z" fill="#2AF6FF"/>
<path d="M234.189 320.37L231.942 321.661V319.098L234.189 317.807V320.37Z" fill="#25054D"/>
<path d="M238.388 317.936L236.142 319.245V316.664L238.388 315.374V317.936Z" fill="#2AF6FF"/>
<path d="M242.587 315.521L240.358 316.812V314.23L242.587 312.94V315.521Z" fill="#2AF6FF"/>
<path d="M246.786 313.087L244.558 314.378V311.815L246.786 310.506V313.087Z" fill="#2AF6FF"/>
<path d="M251.004 310.654L248.757 311.944V309.381L251.004 308.091V310.654Z" fill="#4B61B8"/>
<path d="M255.203 308.22L252.956 309.51V306.948L255.203 305.657V308.22Z" fill="#4B61B8"/>
<path d="M259.402 305.786L257.173 307.095V304.514L259.402 303.223V305.786Z" fill="#4B61B8"/>
<path d="M263.6 303.371L261.372 304.661V302.08L263.6 300.79V303.371Z" fill="#4B61B8"/>
<path d="M267.818 300.937L265.571 302.228V299.665L267.818 298.356V300.937Z" fill="#4B61B8"/>
<path d="M221.574 332.189L219.327 333.498V330.916L221.574 329.626V332.189Z" fill="#2AF6FF"/>
<path d="M225.772 329.773L223.544 331.064V328.483L225.772 327.192V329.773Z" fill="#4B61B8"/>
<path d="M229.99 327.34L227.743 328.63V326.049L229.99 324.758V327.34Z" fill="#4B61B8"/>
<path d="M234.189 324.906L231.942 326.196V323.634L234.189 322.343V324.906Z" fill="#4B61B8"/>
<path d="M238.388 322.472L236.142 323.763V321.2L238.388 319.909V322.472Z" fill="#4B61B8"/>
<path d="M242.587 320.057L240.358 321.347V318.766L242.587 317.475V320.057Z" fill="#4B61B8"/>
<path d="M246.786 317.623L244.558 318.914V316.332L246.786 315.042V317.623Z" fill="#25054D"/>
<path d="M251.004 315.189L248.757 316.48V313.917L251.004 312.626V315.189Z" fill="#2AF6FF"/>
<path d="M255.203 312.755L252.956 314.046V311.483L255.203 310.193V312.755Z" fill="#4B61B8"/>
<path d="M259.402 310.322L257.173 311.612V309.05L259.402 307.759V310.322Z" fill="#4B61B8"/>
<path d="M263.6 307.906L261.372 309.197V306.616L263.6 305.325V307.906Z" fill="#4B61B8"/>
<path d="M267.818 305.473L265.571 306.763V304.201L267.818 302.891V305.473Z" fill="#2AF6FF"/>
<path d="M138.845 277.097L208.405 317.641L277.708 277.153L208.055 236.572L138.845 277.097Z" fill="url(#paint97_linear)"/>
<path d="M208.369 304.698V316.056L272.791 278.425V267.086L208.369 304.698Z" fill="url(#paint98_linear)"/>
<path d="M208.405 304.698V316.056L143.762 278.333V267.012L208.405 304.698Z" fill="url(#paint99_linear)"/>
<path d="M208.369 281.227V315.281L277.708 274.793V240.739L208.369 281.227Z" fill="url(#paint100_linear)"/>
<path d="M208.405 281.227V315.281L138.845 274.682V240.683L208.405 281.227Z" fill="url(#paint101_linear)"/>
<path d="M144.72 271.29V250.916L202.53 284.62V305.03L144.72 271.29Z" fill="#25054D"/>
<path d="M204.169 307.943L143.081 272.285V248.058L204.169 283.661V307.943ZM146.359 270.405L200.891 302.228V285.634L146.359 253.829V270.405Z" fill="url(#paint102_linear)"/>
<path d="M194.63 286.685L196.858 287.975V285.394L194.63 284.104V286.685Z" fill="#2AF6FF"/>
<path d="M190.431 284.251L192.659 285.542V282.979L190.431 281.688V284.251Z" fill="#2AF6FF"/>
<path d="M186.231 281.817L188.46 283.108V280.545L186.231 279.255V281.817Z" fill="#4B61B8"/>
<path d="M182.014 279.384L184.261 280.693V278.111L182.014 276.821V279.384Z" fill="#25054D"/>
<path d="M177.815 276.968L180.062 278.259V275.678L177.815 274.387V276.968Z" fill="#25054D"/>
<path d="M173.616 274.535L175.844 275.825V273.262L173.616 271.953V274.535Z" fill="#4B61B8"/>
<path d="M169.417 272.101L171.645 273.391V270.829L169.417 269.538V272.101Z" fill="#4B61B8"/>
<path d="M165.2 269.667L167.447 270.958V268.395L165.2 267.104V269.667Z" fill="#4B61B8"/>
<path d="M161 267.233L163.247 268.542V265.961L161 264.67V267.233Z" fill="#25054D"/>
<path d="M156.801 264.818L159.03 266.109V263.527L156.801 262.237V264.818Z" fill="#4B61B8"/>
<path d="M152.602 262.384L154.83 263.675V261.112L152.602 259.803V262.384Z" fill="#2AF6FF"/>
<path d="M148.385 259.95L150.632 261.241V258.678L148.385 257.388V259.95Z" fill="#2AF6FF"/>
<path d="M194.63 291.257L196.858 292.548V289.967L194.63 288.676V291.257Z" fill="#4B61B8"/>
<path d="M190.431 288.824L192.659 290.114V287.533L190.431 286.242V288.824Z" fill="#2AF6FF"/>
<path d="M186.231 286.39L188.46 287.68V285.118L186.231 283.827V286.39Z" fill="#2AF6FF"/>
<path d="M182.014 283.956L184.261 285.247V282.684L182.014 281.393V283.956Z" fill="#25054D"/>
<path d="M177.815 281.522L180.062 282.831V280.25L177.815 278.96V281.522Z" fill="#2AF6FF"/>
<path d="M173.616 279.107L175.844 280.398V277.816L173.616 276.526V279.107Z" fill="#2AF6FF"/>
<path d="M169.417 276.673L171.645 277.964V275.401L169.417 274.092V276.673Z" fill="#2AF6FF"/>
<path d="M165.2 274.24L167.447 275.53V272.967L165.2 271.677V274.24Z" fill="#4B61B8"/>
<path d="M161 271.806L163.247 273.096V270.534L161 269.243V271.806Z" fill="#4B61B8"/>
<path d="M156.801 269.372L159.03 270.681V268.1L156.801 266.809V269.372Z" fill="#4B61B8"/>
<path d="M152.602 266.957L154.83 268.247V265.666L152.602 264.375V266.957Z" fill="#4B61B8"/>
<path d="M148.385 264.523L150.632 265.814V263.251L148.385 261.942V264.523Z" fill="#4B61B8"/>
<path d="M194.63 295.775L196.858 297.084V294.502L194.63 293.212V295.775Z" fill="#2AF6FF"/>
<path d="M190.431 293.359L192.659 294.65V292.069L190.431 290.778V293.359Z" fill="#4B61B8"/>
<path d="M186.231 290.925L188.46 292.216V289.635L186.231 288.344V290.925Z" fill="#4B61B8"/>
<path d="M182.014 288.492L184.261 289.782V287.22L182.014 285.929V288.492Z" fill="#4B61B8"/>
<path d="M177.815 286.058L180.062 287.349V284.786L177.815 283.495V286.058Z" fill="#4B61B8"/>
<path d="M173.616 283.643L175.844 284.933V282.352L173.616 281.061V283.643Z" fill="#4B61B8"/>
<path d="M169.417 281.209L171.645 282.5V279.918L169.417 278.628V281.209Z" fill="#25054D"/>
<path d="M165.2 278.775L167.447 280.066V277.503L165.2 276.212V278.775Z" fill="#2AF6FF"/>
<path d="M161 276.341L163.247 277.632V275.069L161 273.779V276.341Z" fill="#4B61B8"/>
<path d="M156.801 273.908L159.03 275.198V272.635L156.801 271.345V273.908Z" fill="#4B61B8"/>
<path d="M152.602 271.492L154.83 272.783V270.202L152.602 268.911V271.492Z" fill="#2AF6FF"/>
<path d="M148.385 269.059L150.632 270.349V267.786L148.385 266.477V269.059Z" fill="#2AF6FF"/>
<path style="mix-blend-mode:screen" d="M208.405 280.121L139.784 240.13L138.845 240.683L208.405 281.227L277.708 240.739L276.75 240.204L208.405 280.121Z" fill="url(#paint103_radial)"/>
<path d="M156.949 241.273L207.908 270.995L259.568 241.236L208.553 211.497L156.949 241.273Z" fill="url(#paint104_linear)"/>
<g style="mix-blend-mode:color-dodge">
<path style="mix-blend-mode:color-dodge" d="M182.732 256.208L208.074 270.995L233.784 256.189L208.406 241.402L182.732 256.208Z" fill="url(#paint105_radial)"/>
</g>
<path style="mix-blend-mode:screen" d="M259.568 133.819L208.092 103.803L156.949 133.764V241.273L207.908 270.994L259.568 241.236V133.819Z" fill="url(#paint106_linear)"/>
<path d="M286.88 327.358V398.066L356.348 357.227V286.537L286.88 327.358Z" fill="url(#paint107_linear)"/>
<path d="M286.916 327.358V398.066L217.466 357.54V286.869L286.916 327.358Z" fill="#330A66"/>
<path d="M217.466 286.869L286.916 327.358L356.348 286.537L286.824 245.993L217.466 286.869Z" fill="#45108A"/>
<path style="mix-blend-mode:screen" d="M286.916 326.252L218.424 286.316L217.466 286.869L286.916 327.358L356.348 286.537L355.39 285.984L286.916 326.252Z" fill="url(#paint108_radial)"/>
<path style="mix-blend-mode:lighten" opacity="0.2" d="M437.161 569C503.346 569 557 541.487 557 507.548C557 473.609 503.346 446.096 437.161 446.096C370.976 446.096 317.323 473.609 317.323 507.548C317.323 541.487 370.976 569 437.161 569Z" fill="url(#paint109_radial)"/>
<path d="M90.6294 393.954L102.066 400.592L109.488 396.204L98.0514 389.548L90.6294 393.954Z" fill="#E2953F"/>
<path d="M54.7163 373.286L66.1532 379.942L73.5752 375.535L62.1383 368.879L54.7163 373.286Z" fill="#E2953F"/>
<path style="mix-blend-mode:multiply" d="M101.919 399.983L125.087 392.074L108.512 382.081L92.0474 394.268L101.919 399.983Z" fill="url(#paint110_linear)"/>
<path style="mix-blend-mode:multiply" d="M66.1537 378.928L89.3221 371.018L72.7469 361.043L56.2822 373.212L66.1537 378.928Z" fill="url(#paint111_linear)"/>
<path d="M91.1085 353.705L79.3769 346.92C69.9659 341.481 62.3413 345.832 62.3413 356.637V369.82L72.2128 375.517V365.726C72.2128 359.568 76.5592 357.098 81.9001 360.195L88.5854 364.049C91.3869 365.886 93.7182 368.357 95.3913 371.261C97.0643 374.166 98.0323 377.424 98.2174 380.771V390.58L108.089 396.277V383.113C108.144 372.309 100.52 359.144 91.1085 353.705Z" fill="url(#paint112_linear)"/>
<path d="M91.1084 353.705L79.3768 346.92C74.6989 344.21 70.4631 343.933 67.3875 345.666L61.0889 349.354L62.3412 356.969V369.746L64.6802 371.092L66.0062 379.13L72.2127 375.443V365.653C72.2127 359.495 76.5591 357.024 81.9 360.121L88.5852 363.975C91.3965 365.82 93.7338 368.302 95.4073 371.22C97.0809 374.139 98.0436 377.411 98.2173 380.771V390.58L100.833 392.092L101.864 399.965L108.089 396.277V383.113C108.144 372.309 100.519 359.144 91.1084 353.705Z" fill="url(#paint113_linear)"/>
<path style="mix-blend-mode:screen" d="M85.9703 356.932L74.2755 350.147C69.0083 347.105 64.2936 347.123 61.1812 349.649L62.3966 357.024V369.801L64.7356 371.147L66.0616 379.186L67.1298 378.559V368.935C67.1298 364.38 69.5055 361.836 72.9311 362.094C74.3123 358.72 77.83 357.78 81.9554 360.25L88.6407 364.104C91.4247 365.942 93.7408 368.407 95.4037 371.301C97.0665 374.195 98.0301 377.438 98.2175 380.771V390.58L100.833 392.092L101.864 399.965L102.951 399.338V386.34C103.006 375.535 95.3813 362.371 85.9703 356.932Z" fill="url(#paint114_radial)"/>
<path d="M84.9019 357.393L73.152 350.608C63.741 345.169 56.1348 349.52 56.1348 360.324V373.507L66.0062 379.204V369.414C66.0062 363.256 70.3342 360.785 75.6935 363.883L82.3604 367.736C85.1753 369.564 87.5196 372.031 89.2029 374.937C90.8861 377.843 91.8608 381.105 92.0477 384.459V394.268L101.919 399.965V386.8C101.901 375.996 94.2945 362.832 84.9019 357.393Z" fill="url(#paint115_linear)"/>
<path style="mix-blend-mode:screen" d="M467.034 352.193V265.537H405.632V363.735C405.595 363.83 405.595 363.935 405.632 364.03V369.986H405.834C405.906 370.14 406.03 370.264 406.184 370.336L409.757 372.401C410.063 372.555 410.4 372.635 410.742 372.635C411.085 372.635 411.422 372.555 411.728 372.401L415.687 370.096L417.529 371.11L421.065 373.12L417.069 375.425C416.952 375.467 416.85 375.545 416.779 375.647C416.708 375.75 416.669 375.871 416.669 375.996C416.669 376.121 416.708 376.243 416.779 376.345C416.85 376.447 416.952 376.525 417.069 376.568L420.513 378.559C420.818 378.713 421.156 378.793 421.498 378.793C421.84 378.793 422.178 378.713 422.483 378.559L426.682 376.125C428.722 377.089 430.906 377.712 433.147 377.969C435.459 378.189 437.791 378.077 440.071 377.637C442.169 377.265 444.192 376.548 446.057 375.517C446.93 375.117 447.709 374.538 448.344 373.817C448.979 373.096 449.454 372.249 449.74 371.331C449.876 370.43 449.778 369.509 449.456 368.656C449.133 367.804 448.597 367.049 447.898 366.464C450.485 367.023 453.153 367.086 455.763 366.648C457.474 366.371 459.128 365.817 460.661 365.007C462.107 364.321 463.29 363.182 464.032 361.762C464.541 360.709 464.62 359.499 464.253 358.388C463.85 357.319 463.177 356.373 462.301 355.641L466.702 353.078C467.163 352.765 467.255 352.415 467.034 352.193Z" fill="url(#paint116_linear)"/>
<defs>
<linearGradient id="paint0_linear" x1="363.457" y1="171.967" x2="378.255" y2="205.123" gradientUnits="userSpaceOnUse">
<stop offset="0.04" stop-color="#FFA98C"/>
<stop offset="0.32" stop-color="#FFB892"/>
<stop offset="0.86" stop-color="#FEE1A3"/>
<stop offset="1" stop-color="#FEECA8"/>
</linearGradient>
<linearGradient id="paint1_linear" x1="8424.49" y1="2308.31" x2="12274.2" y2="8334.78" gradientUnits="userSpaceOnUse">
<stop offset="0.04" stop-color="#FFA98C"/>
<stop offset="0.32" stop-color="#FFB892"/>
<stop offset="0.86" stop-color="#FEE1A3"/>
<stop offset="1" stop-color="#FEECA8"/>
</linearGradient>
<linearGradient id="paint2_linear" x1="27393.3" y1="-684.802" x2="26212.1" y2="8304.01" gradientUnits="userSpaceOnUse">
<stop offset="0.04" stop-color="#FFA98C"/>
<stop offset="0.32" stop-color="#FFB892"/>
<stop offset="0.86" stop-color="#FEE1A3"/>
<stop offset="1" stop-color="#FEECA8"/>
</linearGradient>
<radialGradient id="paint3_radial" cx="0" cy="0" r="1" gradientUnits="userSpaceOnUse" gradientTransform="translate(325.205 156.959) scale(51.2173 51.2747)">
<stop offset="0.1" stop-color="#FFE4A7"/>
<stop offset="0.42" stop-color="#F4BE4C"/>
<stop offset="0.67" stop-color="#ECA30A"/>
<stop offset="1"/>
</radialGradient>
<linearGradient id="paint4_linear" x1="14034.8" y1="4626.87" x2="14399.5" y2="5672.16" gradientUnits="userSpaceOnUse">
<stop offset="0.04" stop-color="#FFA98C"/>
<stop offset="0.32" stop-color="#FFB892"/>
<stop offset="0.86" stop-color="#FEE1A3"/>
<stop offset="1" stop-color="#FEECA8"/>
</linearGradient>
<linearGradient id="paint5_linear" x1="8424.49" y1="1731.76" x2="12276.1" y2="7759.08" gradientUnits="userSpaceOnUse">
<stop offset="0.04" stop-color="#FFA98C"/>
<stop offset="0.32" stop-color="#FFB892"/>
<stop offset="0.86" stop-color="#FEE1A3"/>
<stop offset="1" stop-color="#FEECA8"/>
</linearGradient>
<linearGradient id="paint6_linear" x1="27393.3" y1="-1543.98" x2="26212.6" y2="7442.86" gradientUnits="userSpaceOnUse">
<stop offset="0.04" stop-color="#FFA98C"/>
<stop offset="0.32" stop-color="#FFB892"/>
<stop offset="0.86" stop-color="#FEE1A3"/>
<stop offset="1" stop-color="#FEECA8"/>
</linearGradient>
<radialGradient id="paint7_radial" cx="0" cy="0" r="1" gradientUnits="userSpaceOnUse" gradientTransform="translate(24779.5 3211.98) scale(3862.3 1150.6)">
<stop offset="0.1" stop-color="#FFE4A7"/>
<stop offset="0.42" stop-color="#F4BE4C"/>
<stop offset="0.67" stop-color="#ECA30A"/>
<stop offset="1"/>
</radialGradient>
<linearGradient id="paint8_linear" x1="14034.8" y1="4047.48" x2="14399.7" y2="5093.05" gradientUnits="userSpaceOnUse">
<stop offset="0.04" stop-color="#FFA98C"/>
<stop offset="0.32" stop-color="#FFB892"/>
<stop offset="0.86" stop-color="#FEE1A3"/>
<stop offset="1" stop-color="#FEECA8"/>
</linearGradient>
<linearGradient id="paint9_linear" x1="8424.49" y1="1153.93" x2="12276" y2="7181.76" gradientUnits="userSpaceOnUse">
<stop offset="0.04" stop-color="#FFA98C"/>
<stop offset="0.32" stop-color="#FFB892"/>
<stop offset="0.86" stop-color="#FEE1A3"/>
<stop offset="1" stop-color="#FEECA8"/>
</linearGradient>
<linearGradient id="paint10_linear" x1="27393.3" y1="-2404.72" x2="26212.1" y2="6584.09" gradientUnits="userSpaceOnUse">
<stop offset="0.04" stop-color="#FFA98C"/>
<stop offset="0.32" stop-color="#FFB892"/>
<stop offset="0.86" stop-color="#FEE1A3"/>
<stop offset="1" stop-color="#FEECA8"/>
</linearGradient>
<radialGradient id="paint11_radial" cx="0" cy="0" r="1" gradientUnits="userSpaceOnUse" gradientTransform="translate(24779.5 2766.72) scale(3862.3 1151.12)">
<stop offset="0.1" stop-color="#FFE4A7"/>
<stop offset="0.42" stop-color="#F4BE4C"/>
<stop offset="0.67" stop-color="#ECA30A"/>
<stop offset="1"/>
</radialGradient>
<linearGradient id="paint12_linear" x1="14034.8" y1="3465.43" x2="14399.5" y2="4510.72" gradientUnits="userSpaceOnUse">
<stop offset="0.04" stop-color="#FFA98C"/>
<stop offset="0.32" stop-color="#FFB892"/>
<stop offset="0.86" stop-color="#FEE1A3"/>
<stop offset="1" stop-color="#FEECA8"/>
</linearGradient>
<linearGradient id="paint13_linear" x1="8424.49" y1="576.48" x2="12274.2" y2="6602.94" gradientUnits="userSpaceOnUse">
<stop offset="0.04" stop-color="#FFA98C"/>
<stop offset="0.32" stop-color="#FFB892"/>
<stop offset="0.86" stop-color="#FEE1A3"/>
<stop offset="1" stop-color="#FEECA8"/>
</linearGradient>
<linearGradient id="paint14_linear" x1="28208.5" y1="-5391.14" x2="27027.3" y2="3597.67" gradientUnits="userSpaceOnUse">
<stop offset="0.04" stop-color="#FFA98C"/>
<stop offset="0.32" stop-color="#FFB892"/>
<stop offset="0.86" stop-color="#FEE1A3"/>
<stop offset="1" stop-color="#FEECA8"/>
</linearGradient>
<linearGradient id="paint15_linear" x1="313.087" y1="62.7613" x2="354.273" y2="120.63" gradientUnits="userSpaceOnUse">
<stop stop-color="#25054D"/>
<stop offset="1" stop-color="#45108A"/>
</linearGradient>
<radialGradient id="paint16_radial" cx="0" cy="0" r="1" gradientUnits="userSpaceOnUse" gradientTransform="translate(24779.5 2319.68) scale(3862.3 1151.12)">
<stop offset="0.1" stop-color="#FFE4A7"/>
<stop offset="0.42" stop-color="#F4BE4C"/>
<stop offset="0.67" stop-color="#ECA30A"/>
<stop offset="1"/>
</radialGradient>
<radialGradient id="paint17_radial" cx="0" cy="0" r="1" gradientUnits="userSpaceOnUse" gradientTransform="translate(329.091 98.0876) scale(32.119 32.155)">
<stop stop-color="white"/>
<stop offset="1"/>
</radialGradient>
<linearGradient id="paint18_linear" x1="331.688" y1="84.4438" x2="331.688" y2="2.54437" gradientUnits="userSpaceOnUse">
<stop stop-color="#1BB0D4"/>
<stop offset="0.05" stop-color="#189DBD"/>
<stop offset="0.18" stop-color="#12738B"/>
<stop offset="0.31" stop-color="#0C5060"/>
<stop offset="0.45" stop-color="#08333E"/>
<stop offset="0.58" stop-color="#041D23"/>
<stop offset="0.72" stop-color="#020D0F"/>
<stop offset="0.85" stop-color="#000304"/>
<stop offset="1"/>
</linearGradient>
<linearGradient id="paint19_linear" x1="16072.7" y1="23875.8" x2="19991.9" y2="29353.1" gradientUnits="userSpaceOnUse">
<stop stop-color="#25054D"/>
<stop offset="1" stop-color="#45108A"/>
</linearGradient>
<radialGradient id="paint20_radial" cx="0" cy="0" r="1" gradientUnits="userSpaceOnUse" gradientTransform="translate(369.424 326.621) scale(71.1996 71.2795)">
<stop offset="0.1" stop-color="#45108A"/>
<stop offset="0.67" stop-color="#25054D"/>
<stop offset="1"/>
</radialGradient>
<linearGradient id="paint21_linear" x1="12877.3" y1="26756.6" x2="16796.5" y2="32233.9" gradientUnits="userSpaceOnUse">
<stop stop-color="#25054D"/>
<stop offset="1" stop-color="#45108A"/>
</linearGradient>
<radialGradient id="paint22_radial" cx="0" cy="0" r="1" gradientUnits="userSpaceOnUse" gradientTransform="translate(21852.5 8737.19) scale(5369.17 1600.22)">
<stop offset="0.1" stop-color="#45108A"/>
<stop offset="0.67" stop-color="#25054D"/>
<stop offset="1"/>
</radialGradient>
<linearGradient id="paint23_linear" x1="308.648" y1="97.6451" x2="253.948" y2="167.648" gradientUnits="userSpaceOnUse">
<stop stop-color="#972A74"/>
<stop offset="0.04" stop-color="#8A266A"/>
<stop offset="0.19" stop-color="#601B4A"/>
<stop offset="0.35" stop-color="#3D112F"/>
<stop offset="0.51" stop-color="#230A1B"/>
<stop offset="0.67" stop-color="#0F040C"/>
<stop offset="0.83" stop-color="#040103"/>
<stop offset="1"/>
</linearGradient>
<linearGradient id="paint24_linear" x1="19110.6" y1="26804.2" x2="23030.3" y2="32281.8" gradientUnits="userSpaceOnUse">
<stop stop-color="#25054D"/>
<stop offset="1" stop-color="#45108A"/>
</linearGradient>
<linearGradient id="paint25_linear" x1="15992.3" y1="29685" x2="19912" y2="35162.6" gradientUnits="userSpaceOnUse">
<stop stop-color="#25054D"/>
<stop offset="1" stop-color="#45108A"/>
</linearGradient>
<linearGradient id="paint26_linear" x1="4944.95" y1="29305.7" x2="8450.1" y2="27803.8" gradientUnits="userSpaceOnUse">
<stop stop-color="#972A74"/>
<stop offset="0.04" stop-color="#8A266A"/>
<stop offset="0.19" stop-color="#601B4A"/>
<stop offset="0.35" stop-color="#3D112F"/>
<stop offset="0.51" stop-color="#230A1B"/>
<stop offset="0.67" stop-color="#0F040C"/>
<stop offset="0.83" stop-color="#040103"/>
<stop offset="1"/>
</linearGradient>
<linearGradient id="paint27_linear" x1="2200.69" y1="22759.7" x2="5160.56" y2="25026" gradientUnits="userSpaceOnUse">
<stop offset="0.04" stop-color="#FFA98C"/>
<stop offset="0.32" stop-color="#FFB892"/>
<stop offset="0.86" stop-color="#FEE1A3"/>
<stop offset="1" stop-color="#FEECA8"/>
</linearGradient>
<linearGradient id="paint28_linear" x1="-2997.24" y1="15405.5" x2="12078.4" y2="26871.6" gradientUnits="userSpaceOnUse">
<stop offset="0.04" stop-color="#FFA98C"/>
<stop offset="0.32" stop-color="#FFB892"/>
<stop offset="0.86" stop-color="#FEE1A3"/>
<stop offset="1" stop-color="#FEECA8"/>
</linearGradient>
<linearGradient id="paint29_linear" x1="1356.24" y1="21762.5" x2="2125.37" y2="21762.5" gradientUnits="userSpaceOnUse">
<stop stop-color="#25054D"/>
<stop offset="1" stop-color="#45108A"/>
</linearGradient>
<linearGradient id="paint30_linear" x1="5732.14" y1="9205.61" x2="5215.51" y2="13136.3" gradientUnits="userSpaceOnUse">
<stop offset="0.04" stop-color="#FFA98C"/>
<stop offset="0.32" stop-color="#FFB892"/>
<stop offset="0.86" stop-color="#FEE1A3"/>
<stop offset="1" stop-color="#FEECA8"/>
</linearGradient>
<radialGradient id="paint31_radial" cx="0" cy="0" r="1" gradientUnits="userSpaceOnUse" gradientTransform="translate(4460.83 9122.27) scale(3574.91 1472.58)">
<stop offset="0.1" stop-color="#FFE4A7"/>
<stop offset="0.42" stop-color="#F4BE4C"/>
<stop offset="0.67" stop-color="#ECA30A"/>
<stop offset="1"/>
</radialGradient>
<radialGradient id="paint32_radial" cx="0" cy="0" r="1" gradientUnits="userSpaceOnUse" gradientTransform="translate(5653.52 11637) scale(284.258 635.054)">
<stop stop-color="white"/>
<stop offset="1"/>
</radialGradient>
<linearGradient id="paint33_linear" x1="25275.3" y1="23254.1" x2="22294.9" y2="24694.4" gradientUnits="userSpaceOnUse">
<stop stop-color="#1BB0D4"/>
<stop offset="0.05" stop-color="#189DBD"/>
<stop offset="0.18" stop-color="#12738B"/>
<stop offset="0.31" stop-color="#0C5060"/>
<stop offset="0.45" stop-color="#08333E"/>
<stop offset="0.58" stop-color="#041D23"/>
<stop offset="0.72" stop-color="#020D0F"/>
<stop offset="0.85" stop-color="#000304"/>
<stop offset="1"/>
</linearGradient>
<linearGradient id="paint34_linear" x1="9834.52" y1="29729.2" x2="13753.7" y2="35206.6" gradientUnits="userSpaceOnUse">
<stop stop-color="#25054D"/>
<stop offset="1" stop-color="#45108A"/>
</linearGradient>
<radialGradient id="paint35_radial" cx="0" cy="0" r="1" gradientUnits="userSpaceOnUse" gradientTransform="translate(122.012 445.229) scale(87.8117 87.91)">
<stop stop-color="#FDD65B"/>
<stop offset="0.21" stop-color="#B19540"/>
<stop offset="0.47" stop-color="#52461E"/>
<stop offset="0.66" stop-color="#171308"/>
<stop offset="0.75"/>
</radialGradient>
<radialGradient id="paint36_radial" cx="0" cy="0" r="1" gradientUnits="userSpaceOnUse" gradientTransform="translate(15845.7 9867.05) scale(5332.35 1588.75)">
<stop offset="0.1" stop-color="#45108A"/>
<stop offset="0.67" stop-color="#25054D"/>
<stop offset="1"/>
</radialGradient>
<linearGradient id="paint37_linear" x1="6791.72" y1="21937.3" x2="10711.7" y2="27415" gradientUnits="userSpaceOnUse">
<stop stop-color="#25054D"/>
<stop offset="1" stop-color="#45108A"/>
</linearGradient>
<radialGradient id="paint38_radial" cx="0" cy="0" r="1" gradientUnits="userSpaceOnUse" gradientTransform="translate(9841.82 6898.34) scale(5368.45 1600.22)">
<stop offset="0.1" stop-color="#45108A"/>
<stop offset="0.67" stop-color="#25054D"/>
<stop offset="1"/>
</radialGradient>
<radialGradient id="paint39_radial" cx="0" cy="0" r="1" gradientUnits="userSpaceOnUse" gradientTransform="translate(16276.5 11570) scale(2146.97 1800.22)">
<stop stop-color="#FDD65B"/>
<stop offset="0.21" stop-color="#B19540"/>
<stop offset="0.47" stop-color="#52461E"/>
<stop offset="0.66" stop-color="#171308"/>
<stop offset="0.75"/>
</radialGradient>
<linearGradient id="paint40_linear" x1="12877.3" y1="32565.8" x2="16796.7" y2="38044.3" gradientUnits="userSpaceOnUse">
<stop stop-color="#25054D"/>
<stop offset="1" stop-color="#45108A"/>
</linearGradient>
<radialGradient id="paint41_radial" cx="0" cy="0" r="1" gradientUnits="userSpaceOnUse" gradientTransform="translate(21852.5 10948.4) scale(5369.17 1599.51)">
<stop offset="0.1" stop-color="#45108A"/>
<stop offset="0.67" stop-color="#25054D"/>
<stop offset="1"/>
</radialGradient>
<linearGradient id="paint42_linear" x1="9834.52" y1="24774.4" x2="13754.5" y2="30252" gradientUnits="userSpaceOnUse">
<stop stop-color="#25054D"/>
<stop offset="1" stop-color="#45108A"/>
</linearGradient>
<radialGradient id="paint43_radial" cx="0" cy="0" r="1" gradientUnits="userSpaceOnUse" gradientTransform="translate(15845.7 7976.72) scale(5368.45 1599.51)">
<stop offset="0.1" stop-color="#45108A"/>
<stop offset="0.67" stop-color="#25054D"/>
<stop offset="1"/>
</radialGradient>
<linearGradient id="paint44_linear" x1="12551.5" y1="13973.9" x2="12916.2" y2="15019.7" gradientUnits="userSpaceOnUse">
<stop stop-color="#25054D"/>
<stop offset="1" stop-color="#45108A"/>
</linearGradient>
<linearGradient id="paint45_linear" x1="12541.1" y1="11785.3" x2="12856.6" y2="12722.1" gradientUnits="userSpaceOnUse">
<stop stop-color="#25054D"/>
<stop offset="1" stop-color="#45108A"/>
</linearGradient>
<radialGradient id="paint46_radial" cx="0" cy="0" r="1" gradientUnits="userSpaceOnUse" gradientTransform="translate(21852.5 9058.01) scale(5308.06 1581.3)">
<stop offset="0.1" stop-color="#45108A"/>
<stop offset="0.67" stop-color="#25054D"/>
<stop offset="1"/>
</radialGradient>
<radialGradient id="paint47_radial" cx="0" cy="0" r="1" gradientUnits="userSpaceOnUse" gradientTransform="translate(10032.9 7904.6) scale(1916.48 1351.1)">
<stop stop-color="#FDD65B"/>
<stop offset="0.21" stop-color="#B19540"/>
<stop offset="0.47" stop-color="#52461E"/>
<stop offset="0.66" stop-color="#171308"/>
<stop offset="0.75"/>
</radialGradient>
<linearGradient id="paint48_linear" x1="12877.3" y1="27606.9" x2="16796.5" y2="33084.3" gradientUnits="userSpaceOnUse">
<stop stop-color="#25054D"/>
<stop offset="1" stop-color="#45108A"/>
</linearGradient>
<linearGradient id="paint49_linear" x1="19110.6" y1="21845.3" x2="23030.1" y2="27321.7" gradientUnits="userSpaceOnUse">
<stop stop-color="#25054D"/>
<stop offset="1" stop-color="#45108A"/>
</linearGradient>
<radialGradient id="paint50_radial" cx="0" cy="0" r="1" gradientUnits="userSpaceOnUse" gradientTransform="translate(34158.4 6861.7) scale(5368.45 1599.51)">
<stop offset="0.1" stop-color="#45108A"/>
<stop offset="0.67" stop-color="#25054D"/>
<stop offset="1"/>
</radialGradient>
<linearGradient id="paint51_linear" x1="35844.4" y1="34366.9" x2="24603.9" y2="28778.1" gradientUnits="userSpaceOnUse">
<stop stop-color="#972A74"/>
<stop offset="0.04" stop-color="#8A266A"/>
<stop offset="0.19" stop-color="#601B4A"/>
<stop offset="0.35" stop-color="#3D112F"/>
<stop offset="0.51" stop-color="#230A1B"/>
<stop offset="0.67" stop-color="#0F040C"/>
<stop offset="0.83" stop-color="#040103"/>
<stop offset="1"/>
</linearGradient>
<linearGradient id="paint52_linear" x1="18356.2" y1="13782.7" x2="18720.9" y2="14828" gradientUnits="userSpaceOnUse">
<stop offset="0.04" stop-color="#FFA98C"/>
<stop offset="0.32" stop-color="#FFB892"/>
<stop offset="0.86" stop-color="#FEE1A3"/>
<stop offset="1" stop-color="#FEECA8"/>
</linearGradient>
<linearGradient id="paint53_linear" x1="12742.2" y1="10829.5" x2="16591.7" y2="16854.9" gradientUnits="userSpaceOnUse">
<stop offset="0.04" stop-color="#FFA98C"/>
<stop offset="0.32" stop-color="#FFB892"/>
<stop offset="0.86" stop-color="#FEE1A3"/>
<stop offset="1" stop-color="#FEECA8"/>
</linearGradient>
<radialGradient id="paint54_radial" cx="0" cy="0" r="1" gradientUnits="userSpaceOnUse" gradientTransform="translate(33304.4 10250.4) scale(3861.79 1150.6)">
<stop offset="0.1" stop-color="#FFE4A7"/>
<stop offset="0.42" stop-color="#F4BE4C"/>
<stop offset="0.67" stop-color="#ECA30A"/>
<stop offset="1"/>
</radialGradient>
<linearGradient id="paint55_linear" x1="18356.2" y1="13205.8" x2="18721.1" y2="14251.4" gradientUnits="userSpaceOnUse">
<stop offset="0.04" stop-color="#FFA98C"/>
<stop offset="0.32" stop-color="#FFB892"/>
<stop offset="0.86" stop-color="#FEE1A3"/>
<stop offset="1" stop-color="#FEECA8"/>
</linearGradient>
<linearGradient id="paint56_linear" x1="12742.2" y1="10255.2" x2="16593.5" y2="16281.9" gradientUnits="userSpaceOnUse">
<stop offset="0.04" stop-color="#FFA98C"/>
<stop offset="0.32" stop-color="#FFB892"/>
<stop offset="0.86" stop-color="#FEE1A3"/>
<stop offset="1" stop-color="#FEECA8"/>
</linearGradient>
<radialGradient id="paint57_radial" cx="0" cy="0" r="1" gradientUnits="userSpaceOnUse" gradientTransform="translate(33304.4 9808.12) scale(3861.79 1151.12)">
<stop offset="0.1" stop-color="#FFE4A7"/>
<stop offset="0.42" stop-color="#F4BE4C"/>
<stop offset="0.67" stop-color="#ECA30A"/>
<stop offset="1"/>
</radialGradient>
<linearGradient id="paint58_linear" x1="18356.2" y1="12620.8" x2="18720.9" y2="13666" gradientUnits="userSpaceOnUse">
<stop offset="0.04" stop-color="#FFA98C"/>
<stop offset="0.32" stop-color="#FFB892"/>
<stop offset="0.86" stop-color="#FEE1A3"/>
<stop offset="1" stop-color="#FEECA8"/>
</linearGradient>
<linearGradient id="paint59_linear" x1="12742.2" y1="9674.76" x2="16591.7" y2="15700.1" gradientUnits="userSpaceOnUse">
<stop offset="0.04" stop-color="#FFA98C"/>
<stop offset="0.32" stop-color="#FFB892"/>
<stop offset="0.86" stop-color="#FEE1A3"/>
<stop offset="1" stop-color="#FEECA8"/>
</linearGradient>
<radialGradient id="paint60_radial" cx="0" cy="0" r="1" gradientUnits="userSpaceOnUse" gradientTransform="translate(33304.4 9361.08) scale(3861.79 1151.12)">
<stop offset="0.1" stop-color="#FFE4A7"/>
<stop offset="0.42" stop-color="#F4BE4C"/>
<stop offset="0.67" stop-color="#ECA30A"/>
<stop offset="1"/>
</radialGradient>
<linearGradient id="paint61_linear" x1="18356.2" y1="12040" x2="18720.9" y2="13085.3" gradientUnits="userSpaceOnUse">
<stop offset="0.04" stop-color="#FFA98C"/>
<stop offset="0.32" stop-color="#FFB892"/>
<stop offset="0.86" stop-color="#FEE1A3"/>
<stop offset="1" stop-color="#FEECA8"/>
</linearGradient>
<linearGradient id="paint62_linear" x1="12742.2" y1="9097.67" x2="16591.7" y2="15123" gradientUnits="userSpaceOnUse">
<stop offset="0.04" stop-color="#FFA98C"/>
<stop offset="0.32" stop-color="#FFB892"/>
<stop offset="0.86" stop-color="#FEE1A3"/>
<stop offset="1" stop-color="#FEECA8"/>
</linearGradient>
<linearGradient id="paint63_linear" x1="36731.5" y1="7300.63" x2="35550.2" y2="16289.4" gradientUnits="userSpaceOnUse">
<stop offset="0.04" stop-color="#FFA98C"/>
<stop offset="0.32" stop-color="#FFB892"/>
<stop offset="0.86" stop-color="#FEE1A3"/>
<stop offset="1" stop-color="#FEECA8"/>
</linearGradient>
<linearGradient id="paint64_linear" x1="27354.9" y1="7010.11" x2="27707.1" y2="8628.03" gradientUnits="userSpaceOnUse">
<stop stop-color="#25054D"/>
<stop offset="1" stop-color="#45108A"/>
</linearGradient>
<radialGradient id="paint65_radial" cx="0" cy="0" r="1" gradientUnits="userSpaceOnUse" gradientTransform="translate(33304.4 8910.65) scale(3861.79 1150.6)">
<stop offset="0.1" stop-color="#FFE4A7"/>
<stop offset="0.42" stop-color="#F4BE4C"/>
<stop offset="0.67" stop-color="#ECA30A"/>
<stop offset="1"/>
</radialGradient>
<radialGradient id="paint66_radial" cx="0" cy="0" r="1" gradientUnits="userSpaceOnUse" gradientTransform="translate(32116.7 9016.53) scale(1220.12 629.48)">
<stop stop-color="white"/>
<stop offset="1"/>
</radialGradient>
<linearGradient id="paint67_linear" x1="16072.7" y1="14052.1" x2="19992.7" y2="19529.8" gradientUnits="userSpaceOnUse">
<stop stop-color="#25054D"/>
<stop offset="1" stop-color="#45108A"/>
</linearGradient>
<radialGradient id="paint68_radial" cx="0" cy="0" r="1" gradientUnits="userSpaceOnUse" gradientTransform="translate(28154.6 3890.07) scale(5368.45 1599.51)">
<stop offset="0.1" stop-color="#45108A"/>
<stop offset="0.67" stop-color="#25054D"/>
<stop offset="1"/>
</radialGradient>
<radialGradient id="paint69_radial" cx="0" cy="0" r="1" gradientUnits="userSpaceOnUse" gradientTransform="translate(385.023 255.267) scale(13.0023 13.0169)">
<stop offset="0.15" stop-color="#5213A6"/>
<stop offset="0.25" stop-color="#45108A"/>
<stop offset="0.8" stop-color="#25054D"/>
<stop offset="0.97" stop-color="#2D085C"/>
</radialGradient>
<radialGradient id="paint70_radial" cx="0" cy="0" r="1" gradientUnits="userSpaceOnUse" gradientTransform="translate(9897.86 3660.12) scale(132.363 132.512)">
<stop offset="0.15" stop-color="#5213A6"/>
<stop offset="0.25" stop-color="#45108A"/>
<stop offset="0.8" stop-color="#25054D"/>
<stop offset="0.97" stop-color="#2D085C"/>
</radialGradient>
<radialGradient id="paint71_radial" cx="0" cy="0" r="1" gradientUnits="userSpaceOnUse" gradientTransform="translate(10561.9 4062.08) scale(132.364 132.512)">
<stop offset="0.15" stop-color="#5213A6"/>
<stop offset="0.25" stop-color="#45108A"/>
<stop offset="0.8" stop-color="#25054D"/>
<stop offset="0.97" stop-color="#2D085C"/>
</radialGradient>
<radialGradient id="paint72_radial" cx="0" cy="0" r="1" gradientUnits="userSpaceOnUse" gradientTransform="translate(10371.5 4366.12) scale(132.364 132.512)">
<stop offset="0.15" stop-color="#5213A6"/>
<stop offset="0.25" stop-color="#45108A"/>
<stop offset="0.8" stop-color="#25054D"/>
<stop offset="0.97" stop-color="#2D085C"/>
</radialGradient>
<radialGradient id="paint73_radial" cx="0" cy="0" r="1" gradientUnits="userSpaceOnUse" gradientTransform="translate(11236.2 3660.12) scale(132.364 132.512)">
<stop offset="0.15" stop-color="#5213A6"/>
<stop offset="0.25" stop-color="#45108A"/>
<stop offset="0.8" stop-color="#25054D"/>
<stop offset="0.97" stop-color="#2D085C"/>
</radialGradient>
<radialGradient id="paint74_radial" cx="0" cy="0" r="1" gradientUnits="userSpaceOnUse" gradientTransform="translate(11236.2 4319.75) scale(132.364 132.512)">
<stop offset="0.15" stop-color="#5213A6"/>
<stop offset="0.25" stop-color="#45108A"/>
<stop offset="0.8" stop-color="#25054D"/>
<stop offset="0.97" stop-color="#2D085C"/>
</radialGradient>
<radialGradient id="paint75_radial" cx="0" cy="0" r="1" gradientUnits="userSpaceOnUse" gradientTransform="translate(10561.9 4726.85) scale(132.364 132.512)">
<stop offset="0.15" stop-color="#5213A6"/>
<stop offset="0.25" stop-color="#45108A"/>
<stop offset="0.8" stop-color="#25054D"/>
<stop offset="0.97" stop-color="#2D085C"/>
</radialGradient>
<radialGradient id="paint76_radial" cx="0" cy="0" r="1" gradientUnits="userSpaceOnUse" gradientTransform="translate(10561.9 3258.16) scale(132.364 132.512)">
<stop offset="0.15" stop-color="#5213A6"/>
<stop offset="0.25" stop-color="#45108A"/>
<stop offset="0.8" stop-color="#25054D"/>
<stop offset="0.97" stop-color="#2D085C"/>
</radialGradient>
<radialGradient id="paint77_radial" cx="0" cy="0" r="1" gradientUnits="userSpaceOnUse" gradientTransform="translate(10721.5 3654.97) scale(132.364 132.512)">
<stop offset="0.15" stop-color="#5213A6"/>
<stop offset="0.25" stop-color="#45108A"/>
<stop offset="0.8" stop-color="#25054D"/>
<stop offset="0.97" stop-color="#2D085C"/>
</radialGradient>
<radialGradient id="paint78_radial" cx="0" cy="0" r="1" gradientUnits="userSpaceOnUse" gradientTransform="translate(10948 3892.01) scale(132.364 132.512)">
<stop offset="0.15" stop-color="#5213A6"/>
<stop offset="0.25" stop-color="#45108A"/>
<stop offset="0.8" stop-color="#25054D"/>
<stop offset="0.97" stop-color="#2D085C"/>
</radialGradient>
<radialGradient id="paint79_radial" cx="0" cy="0" r="1" gradientUnits="userSpaceOnUse" gradientTransform="translate(10821.8 4278.52) scale(132.364 132.512)">
<stop offset="0.15" stop-color="#5213A6"/>
<stop offset="0.25" stop-color="#45108A"/>
<stop offset="0.8" stop-color="#25054D"/>
<stop offset="0.97" stop-color="#2D085C"/>
</radialGradient>
<radialGradient id="paint80_radial" cx="0" cy="0" r="1" gradientUnits="userSpaceOnUse" gradientTransform="translate(10227.4 3979.63) scale(132.364 132.512)">
<stop offset="0.15" stop-color="#5213A6"/>
<stop offset="0.25" stop-color="#45108A"/>
<stop offset="0.8" stop-color="#25054D"/>
<stop offset="0.97" stop-color="#2D085C"/>
</radialGradient>
<radialGradient id="paint81_radial" cx="0" cy="0" r="1" gradientUnits="userSpaceOnUse" gradientTransform="translate(10361.2 3624.05) scale(132.364 132.512)">
<stop offset="0.15" stop-color="#5213A6"/>
<stop offset="0.25" stop-color="#45108A"/>
<stop offset="0.8" stop-color="#25054D"/>
<stop offset="0.97" stop-color="#2D085C"/>
</radialGradient>
<linearGradient id="paint82_linear" x1="9910.82" y1="14096.4" x2="13830.8" y2="19574" gradientUnits="userSpaceOnUse">
<stop stop-color="#25054D"/>
<stop offset="1" stop-color="#45108A"/>
</linearGradient>
<radialGradient id="paint83_radial" cx="0" cy="0" r="1" gradientUnits="userSpaceOnUse" gradientTransform="translate(15996.3 3908.58) scale(5368.45 1600.22)">
<stop offset="0.1" stop-color="#45108A"/>
<stop offset="0.67" stop-color="#25054D"/>
<stop offset="1"/>
</radialGradient>
<linearGradient id="paint84_linear" x1="12877.3" y1="16933.4" x2="16797.4" y2="22411" gradientUnits="userSpaceOnUse">
<stop stop-color="#25054D"/>
<stop offset="1" stop-color="#45108A"/>
</linearGradient>
<radialGradient id="paint85_radial" cx="0" cy="0" r="1" gradientUnits="userSpaceOnUse" gradientTransform="translate(21852.5 4990.34) scale(5369.17 1600.22)">
<stop offset="0.1" stop-color="#45108A"/>
<stop offset="0.67" stop-color="#25054D"/>
<stop offset="1"/>
</radialGradient>
<linearGradient id="paint86_linear" x1="15992.3" y1="19767.2" x2="19911.8" y2="25243.6" gradientUnits="userSpaceOnUse">
<stop stop-color="#25054D"/>
<stop offset="1" stop-color="#45108A"/>
</linearGradient>
<radialGradient id="paint87_radial" cx="0" cy="0" r="1" gradientUnits="userSpaceOnUse" gradientTransform="translate(28004 6069.53) scale(5761.44 1716.6)">
<stop offset="0.1" stop-color="#45108A"/>
<stop offset="0.67" stop-color="#25054D"/>
<stop offset="1"/>
</radialGradient>
<radialGradient id="paint88_radial" cx="0" cy="0" r="1" gradientUnits="userSpaceOnUse" gradientTransform="translate(13161.7 15052.5) scale(5655.11 6585.11)">
<stop stop-color="#FDD65B"/>
<stop offset="0.21" stop-color="#B19540"/>
<stop offset="0.47" stop-color="#52461E"/>
<stop offset="0.66" stop-color="#171308"/>
<stop offset="0.75"/>
</radialGradient>
<radialGradient id="paint89_radial" cx="0" cy="0" r="1" gradientUnits="userSpaceOnUse" gradientTransform="translate(361.284 351.972) scale(117.389 117.521)">
<stop stop-color="#43E8E1"/>
<stop offset="0.16" stop-color="#33B1AB"/>
<stop offset="0.45" stop-color="#185250"/>
<stop offset="0.66" stop-color="#071716"/>
<stop offset="0.75"/>
</radialGradient>
<linearGradient id="paint90_linear" x1="6791.72" y1="16977.6" x2="10711.7" y2="22455.2" gradientUnits="userSpaceOnUse">
<stop stop-color="#25054D"/>
<stop offset="1" stop-color="#45108A"/>
</linearGradient>
<radialGradient id="paint91_radial" cx="0" cy="0" r="1" gradientUnits="userSpaceOnUse" gradientTransform="translate(9841.82 5007.21) scale(5368.45 1600.22)">
<stop offset="0.1" stop-color="#45108A"/>
<stop offset="0.67" stop-color="#25054D"/>
<stop offset="1"/>
</radialGradient>
<linearGradient id="paint92_linear" x1="9834.52" y1="19814.6" x2="13754.5" y2="25292.3" gradientUnits="userSpaceOnUse">
<stop stop-color="#25054D"/>
<stop offset="1" stop-color="#45108A"/>
</linearGradient>
<linearGradient id="paint93_linear" x1="8896.61" y1="13138" x2="15041" y2="11426.6" gradientUnits="userSpaceOnUse">
<stop stop-color="#25054D"/>
<stop offset="1" stop-color="#45108A"/>
</linearGradient>
<linearGradient id="paint94_linear" x1="25381.1" y1="15189.7" x2="27389.1" y2="15189.7" gradientUnits="userSpaceOnUse">
<stop stop-color="#25054D"/>
<stop offset="1" stop-color="#45108A"/>
</linearGradient>
<linearGradient id="paint95_linear" x1="2773.8" y1="13940.5" x2="10844.5" y2="12253.3" gradientUnits="userSpaceOnUse">
<stop stop-color="#25054D"/>
<stop offset="1" stop-color="#45108A"/>
</linearGradient>
<linearGradient id="paint96_linear" x1="23134.5" y1="15211.4" x2="25160.8" y2="15211.4" gradientUnits="userSpaceOnUse">
<stop stop-color="#25054D"/>
<stop offset="1" stop-color="#45108A"/>
</linearGradient>
<linearGradient id="paint97_linear" x1="21293.3" y1="6357.34" x2="18963.5" y2="13963.2" gradientUnits="userSpaceOnUse">
<stop stop-color="#25054D"/>
<stop offset="1" stop-color="#45108A"/>
</linearGradient>
<linearGradient id="paint98_linear" x1="746.97" y1="450.262" x2="886.246" y2="408.606" gradientUnits="userSpaceOnUse">
<stop offset="0.03" stop-color="#7C1DC9"/>
<stop offset="0.21" stop-color="#6E41D2"/>
<stop offset="0.62" stop-color="#4C9BE8"/>
<stop offset="1" stop-color="#2AF6FF"/>
</linearGradient>
<linearGradient id="paint99_linear" x1="86.5041" y1="311.631" x2="269.661" y2="270.621" gradientUnits="userSpaceOnUse">
<stop offset="0.04" stop-color="#138BBD"/>
<stop offset="0.23" stop-color="#169AC7"/>
<stop offset="0.59" stop-color="#1FC3DF"/>
<stop offset="1" stop-color="#2AF6FF"/>
</linearGradient>
<linearGradient id="paint100_linear" x1="8896.61" y1="11629.4" x2="15041" y2="9917.96" gradientUnits="userSpaceOnUse">
<stop stop-color="#25054D"/>
<stop offset="1" stop-color="#45108A"/>
</linearGradient>
<linearGradient id="paint101_linear" x1="2773.8" y1="12430.8" x2="10844.5" y2="10743.5" gradientUnits="userSpaceOnUse">
<stop stop-color="#25054D"/>
<stop offset="1" stop-color="#45108A"/>
</linearGradient>
<linearGradient id="paint102_linear" x1="23134.5" y1="14006" x2="25160.8" y2="14006" gradientUnits="userSpaceOnUse">
<stop stop-color="#25054D"/>
<stop offset="1" stop-color="#45108A"/>
</linearGradient>
<radialGradient id="paint103_radial" cx="0" cy="0" r="1" gradientUnits="userSpaceOnUse" gradientTransform="translate(15842.9 6050.45) scale(5360.12 1586.35)">
<stop offset="0.1" stop-color="#45108A"/>
<stop offset="0.67" stop-color="#25054D"/>
<stop offset="1"/>
</radialGradient>
<linearGradient id="paint104_linear" x1="11761.1" y1="6765.18" x2="11761.1" y2="8690.53" gradientUnits="userSpaceOnUse">
<stop offset="0.03" stop-color="#7C1DC9"/>
<stop offset="0.21" stop-color="#6E41D2"/>
<stop offset="0.62" stop-color="#4C9BE8"/>
<stop offset="1" stop-color="#2AF6FF"/>
</linearGradient>
<radialGradient id="paint105_radial" cx="0" cy="0" r="1" gradientUnits="userSpaceOnUse" gradientTransform="translate(5946.45 4580.21) scale(811.72 470.516)">
<stop stop-color="white"/>
<stop offset="1"/>
</radialGradient>
<linearGradient id="paint106_linear" x1="11761.1" y1="24677.6" x2="11761.1" y2="9809.26" gradientUnits="userSpaceOnUse">
<stop stop-color="#1BB0D4"/>
<stop offset="0.05" stop-color="#189DBD"/>
<stop offset="0.18" stop-color="#12738B"/>
<stop offset="0.31" stop-color="#0C5060"/>
<stop offset="0.45" stop-color="#08333E"/>
<stop offset="0.58" stop-color="#041D23"/>
<stop offset="0.72" stop-color="#020D0F"/>
<stop offset="0.85" stop-color="#000304"/>
<stop offset="1"/>
</linearGradient>
<linearGradient id="paint107_linear" x1="12877.3" y1="22648" x2="16796.5" y2="28125.3" gradientUnits="userSpaceOnUse">
<stop stop-color="#25054D"/>
<stop offset="1" stop-color="#45108A"/>
</linearGradient>
<radialGradient id="paint108_radial" cx="0" cy="0" r="1" gradientUnits="userSpaceOnUse" gradientTransform="translate(21852.5 7167.68) scale(5369.17 1599.51)">
<stop offset="0.1" stop-color="#45108A"/>
<stop offset="0.67" stop-color="#25054D"/>
<stop offset="1"/>
</radialGradient>
<radialGradient id="paint109_radial" cx="0" cy="0" r="1" gradientUnits="userSpaceOnUse" gradientTransform="translate(51252.4 -153968) scale(15632.3 4101.27)">
<stop stop-color="#FDD65B"/>
<stop offset="0.21" stop-color="#B19540"/>
<stop offset="0.47" stop-color="#52461E"/>
<stop offset="0.66" stop-color="#171308"/>
<stop offset="0.75"/>
</radialGradient>
<linearGradient id="paint110_linear" x1="119.083" y1="386.211" x2="75.4783" y2="402.772" gradientUnits="userSpaceOnUse">
<stop stop-color="white"/>
<stop offset="1" stop-color="#A3653D"/>
</linearGradient>
<linearGradient id="paint111_linear" x1="1551.01" y1="3903.05" x2="951.989" y2="4324" gradientUnits="userSpaceOnUse">
<stop stop-color="white"/>
<stop offset="1" stop-color="#A3653D"/>
</linearGradient>
<linearGradient id="paint112_linear" x1="16843.1" y1="16669" x2="17023.6" y2="16924.7" gradientUnits="userSpaceOnUse">
<stop offset="0.04" stop-color="#FFA98C"/>
<stop offset="0.32" stop-color="#FFB892"/>
<stop offset="0.86" stop-color="#FEE1A3"/>
<stop offset="1" stop-color="#FEECA8"/>
</linearGradient>
<linearGradient id="paint113_linear" x1="19190.1" y1="21447.8" x2="19642.7" y2="22062.5" gradientUnits="userSpaceOnUse">
<stop offset="0.04" stop-color="#FFA98C"/>
<stop offset="0.32" stop-color="#FFB892"/>
<stop offset="0.86" stop-color="#FEE1A3"/>
<stop offset="1" stop-color="#FEECA8"/>
</linearGradient>
<radialGradient id="paint114_radial" cx="0" cy="0" r="1" gradientUnits="userSpaceOnUse" gradientTransform="translate(14620.5 14748.9) scale(1212.58 1514.18)">
<stop offset="0.1" stop-color="#FFE4A7"/>
<stop offset="0.42" stop-color="#F4BE4C"/>
<stop offset="0.67" stop-color="#ECA30A"/>
<stop offset="1"/>
</radialGradient>
<linearGradient id="paint115_linear" x1="44.3295" y1="439.569" x2="100.597" y2="339.765" gradientUnits="userSpaceOnUse">
<stop offset="0.04" stop-color="#FFA98C"/>
<stop offset="0.31" stop-color="#FFB893"/>
<stop offset="0.32" stop-color="#FFB993"/>
<stop offset="0.82" stop-color="#FEDDA2"/>
<stop offset="1" stop-color="#FEECA8"/>
</linearGradient>
<linearGradient id="paint116_linear" x1="33369.4" y1="32124.5" x2="33369.4" y2="25411.8" gradientUnits="userSpaceOnUse">
<stop stop-color="#1BB0D4"/>
<stop offset="0.05" stop-color="#189DBD"/>
<stop offset="0.18" stop-color="#12738B"/>
<stop offset="0.31" stop-color="#0C5060"/>
<stop offset="0.45" stop-color="#08333E"/>
<stop offset="0.58" stop-color="#041D23"/>
<stop offset="0.72" stop-color="#020D0F"/>
<stop offset="0.85" stop-color="#000304"/>
<stop offset="1"/>
</linearGradient>
</defs>
</svg>
