<svg width="56" height="56" viewBox="0 0 56 56" fill="none" xmlns="http://www.w3.org/2000/svg">
<circle opacity="0.1" cx="28" cy="28" r="28" fill="#FA3F68"/>
<g clip-path="url(#clip0)">
<path d="M43.5344 26.478L30.826 41.1829C30.136 41.9813 28.9292 42.0692 28.1308 41.3791L17.53 32.2176C16.7316 31.5276 16.6437 30.3208 17.3338 29.5224L30.0422 14.8176C30.7327 14.0187 31.9394 13.9308 32.7379 14.6208L43.3386 23.7824C44.137 24.4723 44.2249 25.6791 43.5344 26.478Z" fill="#E5E9EA"/>
<path d="M43.5345 26.478L35.8878 35.3261L22.3955 23.6656L30.0423 14.8176C30.7327 14.0187 31.9395 13.9308 32.7379 14.6208L43.3387 23.7824C44.1371 24.4723 44.225 25.6791 43.5345 26.478Z" fill="#FCB65F"/>
<path d="M37.1062 22.0283L30.9258 40.4548C30.5901 41.4554 29.507 41.9944 28.5065 41.6589L15.2227 37.2034C14.2221 36.8678 13.6831 35.7847 14.0186 34.7841L20.1991 16.3576C20.5349 15.3565 21.618 14.8174 22.6186 15.153L35.9023 19.6084C36.903 19.944 37.442 21.0272 37.1062 22.0283Z" fill="#36A6CE"/>
<path d="M37.1063 22.0283L33.3875 33.1157L16.4805 27.4449L20.1992 16.3575C20.535 15.3564 21.6182 14.8172 22.6187 15.1529L35.9025 19.6083C36.9031 19.944 37.4422 21.0272 37.1063 22.0283Z" fill="#E5E9EA"/>
<path d="M29.8328 20.3096V39.745C29.8328 40.8003 28.9773 41.6559 27.9219 41.6559H13.9109C12.8556 41.6558 12 40.8003 12 39.745V20.3096C12 19.2536 12.8556 18.3981 13.9109 18.3981H27.9219C28.9772 18.3981 29.8328 19.2536 29.8328 20.3096Z" fill="#E5E9EA"/>
<path d="M29.8328 20.3096V32.0041H12V20.3096C12 19.2536 12.8556 18.3981 13.9109 18.3981H27.9219C28.9772 18.3981 29.8328 19.2536 29.8328 20.3096Z" fill="#FA3F68"/>
<path d="M25.8802 35.3158H15.9524C15.6802 35.3158 15.4595 35.0951 15.4595 34.8229C15.4595 34.5506 15.6802 34.33 15.9524 34.33H25.8801C26.1523 34.33 26.373 34.5506 26.373 34.8229C26.373 35.0951 26.1523 35.3158 25.8802 35.3158Z" fill="#566368"/>
<path d="M25.8802 37.2003H15.9524C15.6802 37.2003 15.4595 36.9796 15.4595 36.7074C15.4595 36.4351 15.6802 36.2144 15.9524 36.2144H25.8801C26.1523 36.2144 26.373 36.4351 26.373 36.7074C26.3731 36.9796 26.1523 37.2003 25.8802 37.2003Z" fill="#566368"/>
<path d="M25.8802 39.0847H15.9524C15.6802 39.0847 15.4595 38.864 15.4595 38.5918C15.4595 38.3195 15.6802 38.0988 15.9524 38.0988H25.8801C26.1523 38.0988 26.373 38.3195 26.373 38.5918C26.3731 38.864 26.1523 39.0847 25.8802 39.0847Z" fill="#566368"/>
<path d="M20.9166 20.1814L22.446 23.2803L25.8659 23.7773L23.3913 26.1895L23.9755 29.5956L20.9166 27.9874L17.8578 29.5956L18.4419 26.1895L15.9673 23.7773L19.3872 23.2803L20.9166 20.1814Z" fill="#FCB65F"/>
</g>
<defs>
<clipPath id="clip0">
<rect width="32" height="32" fill="white" transform="translate(12 12)"/>
</clipPath>
</defs>
</svg>
