<svg width="56" height="56" viewBox="0 0 56 56" fill="none" xmlns="http://www.w3.org/2000/svg">
<circle opacity="0.1" cx="28" cy="28" r="28" fill="#00CB76"/>
<g clip-path="url(#clip0)">
<path d="M12 35.3443C12 40.0149 15.7998 43.8149 20.4706 43.8149L21.4118 35.3443L20.4706 26.8737C15.8 26.8737 12 30.6734 12 35.3443Z" fill="#8493FB"/>
<path d="M23.2942 34.3877H28.4707L28.9413 28.2701L28.4707 22.1524C27.8448 22.1524 23.9242 22.1524 23.2942 22.1524V34.3877Z" fill="#8493FB"/>
<path d="M28.4705 34.3877H33.6469L34.5881 26.8583L33.6469 19.3289C33.0211 19.3289 29.1005 19.3289 28.4705 19.3289V34.3877Z" fill="#C21456"/>
<path d="M33.6472 34.3877H38.8237L39.2943 25.4465L38.8237 16.5053C38.1978 16.5053 34.2772 16.5053 33.6472 16.5053V34.3877Z" fill="#00CB76"/>
<path d="M20.4705 26.8737V43.8149C25.1411 43.8149 28.941 40.0151 28.941 35.3443C28.941 30.6736 25.1411 26.8737 20.4705 26.8737Z" fill="#6666FA"/>
<path d="M38.8235 13.6818H43.9999V34.3877H38.8235V13.6818Z" fill="#ECBD2C"/>
<path d="M13.8823 35.3443C13.8823 37.0565 14.543 38.6796 15.7218 39.9062L21.4117 35.3443L20.4706 28.756C16.8379 28.756 13.8823 31.7114 13.8823 35.3443Z" fill="#F9F9F9"/>
<path d="M20.4705 28.756V36.27L25.2192 39.9062C26.3577 38.7215 27.0587 37.1132 27.0587 35.3443C27.0587 31.7115 24.1032 28.756 20.4705 28.756Z" fill="#E2DFF4"/>
<path d="M15.7219 39.9061C16.9618 41.1964 18.6635 41.9325 20.4707 41.9325L21.4118 39.3314L20.4707 36.7304C18.3611 36.7304 16.5064 38.0162 15.7219 39.9061Z" fill="#BFE85F"/>
<path d="M20.4705 36.7304V41.9325C22.3342 41.9325 24.0196 41.1544 25.2192 39.9061C24.4462 38.0438 22.6091 36.7304 20.4705 36.7304Z" fill="#00CB76"/>
<path d="M17.951 37.5673C18.5966 38.2128 19.4878 38.6127 20.4707 38.6127L21.4119 35.0476L20.4707 31.4826C19.4878 31.4826 18.5966 31.8825 17.951 32.5279C16.5575 33.9215 16.5566 36.1729 17.951 37.5673Z" fill="#EDBBA7"/>
<path d="M20.4705 31.4826V38.6128C22.4363 38.6128 24.0355 37.0135 24.0355 35.0477C24.0355 33.0818 22.4363 31.4826 20.4705 31.4826Z" fill="#E8A38B"/>
<path d="M17.8086 15.5127C16.6411 16.6802 14.1881 19.1333 13.5002 19.821L14.8313 21.152C15.638 20.3454 17.3332 18.6501 17.8086 18.1748C18.1306 18.4969 20.1464 20.5127 20.4706 20.8368L21.4118 19.5058L20.4706 18.1748C20.1485 17.8527 18.1328 15.8369 17.8086 15.5127Z" fill="#DD4E4E"/>
<path d="M26.46 12.1852L20.4705 18.1748V20.8368L27.791 13.5162L26.46 12.1852Z" fill="#C21456"/>
</g>
<defs>
<clipPath id="clip0">
<rect width="32" height="32" fill="white" transform="translate(12 12)"/>
</clipPath>
</defs>
</svg>
