<svg width="56" height="56" viewBox="0 0 56 56" fill="none" xmlns="http://www.w3.org/2000/svg">
<circle opacity="0.1" cx="28" cy="28" r="28" fill="#FF9100"/>
<g clip-path="url(#clip0)">
<path d="M43.3559 30.4877C44.7311 22.0045 38.9689 14.0127 30.4857 12.6375C22.0025 11.2623 14.0107 17.0245 12.6355 25.5077C11.2603 33.9909 17.0225 41.9827 25.5057 43.3579C33.9889 44.733 41.9807 38.9709 43.3559 30.4877Z" fill="#FFC839"/>
<path d="M27.5625 12.4478V16.1868C27.5625 16.3028 27.6086 16.4141 27.6906 16.4961C27.7727 16.5782 27.884 16.6243 28 16.6243C28.116 16.6243 28.2273 16.5782 28.3094 16.4961C28.3914 16.4141 28.4375 16.3028 28.4375 16.1868V12.4478C28.2918 12.4438 28.1467 12.4368 28 12.4368C27.8532 12.4368 27.7083 12.4438 27.5625 12.4478Z" fill="#FF9100"/>
<path d="M28 39.375C27.884 39.3751 27.7727 39.4212 27.6907 39.5032C27.6087 39.5852 27.5626 39.6965 27.5625 39.8125V43.55C27.7083 43.554 27.8532 43.561 28 43.561C28.1467 43.561 28.2918 43.554 28.4375 43.55V39.8118C28.4372 39.6959 28.391 39.5848 28.309 39.5029C28.227 39.4211 28.1159 39.3751 28 39.375Z" fill="#FF9100"/>
<path d="M36.0432 19.3372C36.0026 19.3779 35.9703 19.4261 35.9483 19.4792C35.9264 19.5323 35.915 19.5892 35.915 19.6466C35.915 19.7041 35.9264 19.761 35.9483 19.8141C35.9703 19.8671 36.0026 19.9154 36.0432 19.956C36.0838 19.9966 36.132 20.0288 36.1851 20.0508C36.2382 20.0728 36.2951 20.0841 36.3526 20.0841C36.41 20.0841 36.4669 20.0728 36.52 20.0508C36.5731 20.0288 36.6213 19.9966 36.6619 19.956L39.3062 17.3117C39.1062 17.0997 38.9 16.8935 38.6877 16.693L36.0432 19.3372Z" fill="#FF9100"/>
<path d="M19.3378 36.0425L16.6936 38.687C16.8936 38.899 17.0998 39.1052 17.3121 39.3055L19.9566 36.6613C19.9972 36.6206 20.0294 36.5724 20.0514 36.5193C20.0734 36.4662 20.0847 36.4093 20.0847 36.3519C20.0847 36.2944 20.0734 36.2375 20.0514 36.1845C20.0294 36.1314 19.9972 36.0831 19.9566 36.0425C19.916 36.0019 19.8677 35.9697 19.8147 35.9477C19.7616 35.9257 19.7047 35.9144 19.6472 35.9144C19.5898 35.9144 19.5329 35.9257 19.4798 35.9477C19.4267 35.9697 19.3785 36.0019 19.3378 36.0425Z" fill="#FF9100"/>
<path d="M43.5515 27.5618H39.8125C39.6965 27.5618 39.5852 27.6079 39.5031 27.6899C39.4211 27.772 39.375 27.8832 39.375 27.9993C39.375 28.1153 39.4211 28.2266 39.5031 28.3086C39.5852 28.3907 39.6965 28.4368 39.8125 28.4368H43.5515C43.5555 28.291 43.5625 28.146 43.5625 27.9993C43.5625 27.8525 43.5555 27.7075 43.5515 27.5618Z" fill="#FF9100"/>
<path d="M16.1875 27.5618H12.4485C12.4445 27.7075 12.4375 27.8525 12.4375 28C12.4375 28.1475 12.4445 28.2918 12.4485 28.4375H16.1875C16.3035 28.4375 16.4148 28.3914 16.4969 28.3094C16.5789 28.2273 16.625 28.116 16.625 28C16.625 27.884 16.5789 27.7727 16.4969 27.6907C16.4148 27.6086 16.3035 27.5625 16.1875 27.5625V27.5618Z" fill="#FF9100"/>
<path d="M36.0433 36.0425C35.9613 36.1246 35.9153 36.2359 35.9153 36.3519C35.9153 36.4679 35.9613 36.5792 36.0433 36.6613L38.6878 39.3055C38.8995 39.1055 39.1057 38.8994 39.3063 38.687L36.6621 36.0425C36.58 35.9605 36.4687 35.9145 36.3527 35.9145C36.2367 35.9145 36.1254 35.9605 36.0433 36.0425Z" fill="#FF9100"/>
<path d="M17.3121 16.693C17.1001 16.893 16.8939 17.0992 16.6936 17.3117L19.3378 19.956C19.4199 20.038 19.5312 20.0841 19.6472 20.0841C19.7633 20.0841 19.8745 20.038 19.9566 19.956C20.0386 19.8739 20.0847 19.7627 20.0847 19.6466C20.0847 19.5306 20.0386 19.4193 19.9566 19.3372L17.3121 16.693Z" fill="#FF9100"/>
<path d="M28 39.8118C34.5239 39.8118 39.8125 34.5231 39.8125 27.9993C39.8125 21.4754 34.5239 16.1868 28 16.1868C21.4761 16.1868 16.1875 21.4754 16.1875 27.9993C16.1875 34.5231 21.4761 39.8118 28 39.8118Z" fill="#2D3C6B"/>
<path d="M32.8281 34.0783H23.1719L21.9209 25.8595L25.9986 29.6123L28.0001 25.8595L30.0016 29.6123L34.0791 25.8595L32.8281 34.0783Z" fill="#73C3F9"/>
<path d="M27.9999 24.4533C28.6989 24.4533 29.2656 23.8866 29.2656 23.1875C29.2656 22.4884 28.6989 21.9218 27.9999 21.9218C27.3008 21.9218 26.7341 22.4884 26.7341 23.1875C26.7341 23.8866 27.3008 24.4533 27.9999 24.4533Z" fill="#73C3F9"/>
<path d="M34.0792 24.453C34.7781 24.453 35.3447 23.8864 35.3447 23.1875C35.3447 22.4886 34.7781 21.922 34.0792 21.922C33.3803 21.922 32.8137 22.4886 32.8137 23.1875C32.8137 23.8864 33.3803 24.453 34.0792 24.453Z" fill="#73C3F9"/>
<path d="M21.9208 24.4533C22.6198 24.4533 23.1865 23.8866 23.1865 23.1875C23.1865 22.4884 22.6198 21.9218 21.9208 21.9218C21.2217 21.9218 20.655 22.4884 20.655 23.1875C20.655 23.8866 21.2217 24.4533 21.9208 24.4533Z" fill="#73C3F9"/>
</g>
<defs>
<clipPath id="clip0">
<rect width="32" height="32" fill="white" transform="translate(12 12)"/>
</clipPath>
</defs>
</svg>
