<svg width="172" height="41" viewBox="0 0 172 41" fill="none" xmlns="http://www.w3.org/2000/svg">
<path d="M108.465 12.6436V40.3661H100.424V36.3174C99.6029 37.7241 98.4114 38.8783 96.9793 39.6542C95.4972 40.4339 93.8431 40.8289 92.1686 40.8031C88.7049 40.8031 86.1162 39.8365 84.4027 37.9034C82.6892 35.9702 81.8343 33.0539 81.8379 29.1545V12.6436H90.0849V29.3194C90.0849 32.6727 91.5244 34.3494 94.4035 34.3494C96.1152 34.3494 97.5007 33.7667 98.56 32.6013C99.6192 31.4359 100.148 29.9049 100.146 28.0084V12.6436H108.465ZM139.995 0V40.3661H131.847V36.2652C131.003 37.6904 129.771 38.8466 128.296 39.5993C126.689 40.4198 124.904 40.8332 123.1 40.8031C120.848 40.8403 118.636 40.2017 116.75 38.9698C114.848 37.6983 113.341 35.9171 112.404 33.8299C111.365 31.631 110.845 29.1069 110.845 26.2575C110.845 23.4081 111.365 20.9023 112.404 18.74C113.34 16.6896 114.837 14.9458 116.722 13.7101C118.628 12.5083 120.845 11.8919 123.097 11.9372C124.862 11.9155 126.607 12.319 128.183 13.1136C129.651 13.8401 130.884 14.9675 131.737 16.3652V0H139.995ZM130.22 32.4089C131.32 31.0071 131.869 28.9914 131.869 26.3619C131.869 23.7727 131.313 21.7773 130.201 20.3755C129.088 18.9737 127.531 18.2719 125.527 18.27C123.484 18.27 121.898 18.9627 120.769 20.348C119.64 21.7333 119.076 23.7013 119.076 26.252C119.076 28.876 119.64 30.9081 120.769 32.3484C121.898 33.7887 123.484 34.5088 125.527 34.5088C127.556 34.5125 129.12 33.8125 130.22 32.4089ZM171.526 12.6436V40.3661H163.375V36.2652C162.531 37.6914 161.298 38.8478 159.821 39.5993C158.214 40.4176 156.431 40.8291 154.628 40.7976C152.377 40.8585 150.159 40.249 148.256 39.0465C146.352 37.844 144.849 36.1029 143.937 34.0443C142.898 31.8766 142.379 29.3707 142.379 26.5268C142.379 23.6829 142.898 21.1487 143.937 18.9242C144.87 16.8271 146.376 15.0365 148.284 13.7595C150.169 12.5326 152.379 11.8979 154.628 11.9372C156.438 11.9082 158.225 12.3415 159.821 13.1961C161.294 13.9788 162.524 15.1511 163.375 16.5851V12.6436H171.526ZM161.737 32.4336C162.837 31.0483 163.386 29.0437 163.386 26.4197C163.386 23.7956 162.837 21.78 161.737 20.3727C160.637 18.9673 159.07 18.2654 157.034 18.2673C154.997 18.2691 153.411 18.9993 152.275 20.4579C151.146 21.9238 150.581 23.9477 150.579 26.5296C150.577 29.1115 151.133 31.0886 152.248 32.4611C153.36 33.8262 154.955 34.5097 157.034 34.5116C159.073 34.5134 160.641 33.8217 161.737 32.4364V32.4336ZM80.1583 40.7564H69.9128L58.8894 28.187V40.7564H50.527V0H58.8894V24.7512L69.4125 12.7371H79.4381L67.5295 26.2053L80.1583 40.7564ZM27.617 40.7702L11.5685 22.2995L20.3322 40.7702H14.257L5.31728 21.9394L9.03391 40.7702H5.30079L1.58142 21.9119V40.7702H0.116211V0H1.58142V20.3397L5.35302 0H9.07514L5.28704 20.4277L14.3999 0H20.4092L11.3321 20.3535L27.8149 0H37.233L20.1838 21.0571L37.3127 40.7702H27.617Z" fill="#9A9797"/>
</svg>
