<svg width="172" height="34" viewBox="0 0 172 34" fill="none" xmlns="http://www.w3.org/2000/svg">
<path d="M7.08647 22.5725L0 9.53687H2.27467L8.04883 20.3853L13.5605 9.53687H15.6602L8.9237 22.5725H7.08647ZM19.8596 22.5725V9.53687H22.0468V22.5725H19.8596ZM33.8576 11.2866V22.5725H31.6704V11.2866H25.7213V9.53687H39.8067V11.2866H33.8576ZM53.1048 11.1991H45.6684V15.7485H53.1048C53.6297 15.7485 54.0671 15.661 54.2421 15.486C54.4171 15.311 54.5046 14.9611 54.5046 14.4361V12.5989C54.5046 12.074 54.4171 11.724 54.2421 11.5491C53.9797 11.2866 53.6297 11.1991 53.1048 11.1991ZM43.4812 22.5725V9.53687H53.9797C54.942 9.53687 55.6419 9.71184 56.0793 10.1493C56.5168 10.4992 56.6918 11.1991 56.6918 12.074V14.9611C56.6918 15.8359 56.5168 16.4484 56.0793 16.8858C55.6419 17.2357 54.942 17.4982 53.9797 17.4982H52.0549L61.8535 26.4219H58.6165L47.5931 15.7485H45.6684V22.5725H43.4812ZM64.6531 20.7352H75.414V11.2866H64.6531V20.7352ZM62.4659 12.5989C62.4659 11.4616 62.7284 10.5867 63.1658 10.1493C63.6033 9.79933 64.3906 9.53687 65.528 9.53687H74.5392C75.764 9.53687 76.5514 9.71184 76.9013 10.1493C77.3388 10.5867 77.6012 11.4616 77.6012 12.5989V19.4229C77.6012 20.6477 77.3388 21.4351 76.9013 21.8726C76.5514 22.31 75.764 22.5725 74.5392 22.5725H65.528C64.3906 22.5725 63.6033 22.31 63.1658 21.8726C62.7284 21.4351 62.4659 20.6477 62.4659 19.4229V12.5989ZM131.318 22.5725V9.53687H133.418V22.5725H131.318ZM149.866 11.1991H142.342V15.7485H149.866C150.391 15.7485 150.741 15.661 150.916 15.486C151.178 15.311 151.266 14.9611 151.266 14.4361V12.5989C151.266 12.074 151.178 11.724 150.916 11.5491C150.741 11.2866 150.391 11.1991 149.866 11.1991ZM140.242 22.5725V9.53687H150.653C151.703 9.53687 152.403 9.71184 152.753 10.1493C153.19 10.4992 153.453 11.1991 153.453 12.074V14.9611C153.453 15.8359 153.19 16.4484 152.753 16.8858C152.403 17.2357 151.703 17.4982 150.653 17.4982H148.816L158.702 26.4219H155.377L144.529 15.7485H142.342V22.5725H140.242ZM159.402 22.5725V9.53687H171.913V11.2866H161.589V14.8736H167.888V16.6233H161.589V20.7352H172V22.5725H159.402Z" fill="white"/>
<path fill-rule="evenodd" clip-rule="evenodd" d="M111.029 29.3082V16.7101C111.029 15.6602 110.329 15.2228 110.329 15.2228L96.5937 7.52391C96.0688 7.87386 95.3689 8.57375 95.3689 10.061V23.3591C95.3689 24.8464 96.1563 25.6338 96.6812 25.8962L108.579 32.6328L109.279 33.0702C109.629 33.2452 110.067 33.3327 110.417 33.3327C110.592 33.3327 110.854 33.2452 111.029 33.2452C111.379 33.1577 111.642 32.9827 111.642 32.9827L117.941 29.4832L124.152 25.8962C124.59 25.6338 125.465 24.8464 125.465 23.2716V20.822V19.1597V10.061C125.465 8.48627 124.59 7.69888 124.152 7.43642L111.554 0.262462C111.379 0.174975 110.942 0 110.417 0C109.979 0 109.629 0.0874873 109.192 0.262462L109.104 0.349949L108.317 0.787386L113.479 3.76195L122.315 8.74873C122.315 8.74873 122.402 8.74873 122.665 8.9237C122.927 9.18616 123.365 9.6236 123.452 10.411C123.452 10.4985 123.452 10.586 123.452 10.7609V22.3967C123.452 22.3967 123.452 22.4842 123.452 22.6592C123.365 23.0092 123.19 23.7091 122.315 24.1465L116.016 27.7335L112.166 29.9207C111.117 30.5331 111.029 29.3082 111.029 29.3082ZM113.479 14.9603V25.2838C113.479 25.4588 113.654 25.7213 113.916 25.6338L115.666 24.6714C115.928 24.4964 116.016 24.1465 116.016 24.059V14.2604C115.928 13.2981 115.228 12.9481 115.228 12.9481L113.566 11.9858L113.479 11.8983L106.48 7.96134L101.143 4.89929L99.2183 5.94914L112.779 13.648C112.779 13.648 113.479 14.0855 113.479 14.9603ZM118.466 14.6979V22.4842C118.466 22.4842 118.466 22.9217 118.99 22.8342L120.653 21.8718C120.915 21.6968 120.915 21.1719 120.915 21.1719V16.0977V11.8983C120.915 10.9359 120.215 10.586 120.215 10.586L105.692 2.27467L103.768 3.412L117.503 11.1984C117.503 11.1984 118.466 11.8983 118.466 12.9481V14.6979Z" fill="#43E8E1"/>
</svg>
