<svg width="272" height="53" viewBox="0 0 272 53" fill="none" xmlns="http://www.w3.org/2000/svg">
<path d="M11.2065 35.8909L0 15.1639H3.59715L12.7284 32.4133L21.4446 15.1639H24.765L14.1119 35.8909H11.2065ZM31.4059 35.8909V15.1639H34.8647V35.8909H31.4059ZM53.5422 17.9461V35.8909H50.0834V17.9461H40.6755V15.1639H62.9501V17.9461H53.5422ZM83.9797 17.807H72.2197V25.0406H83.9797C84.8098 25.0406 85.5015 24.9015 85.7782 24.6232C86.0549 24.345 86.1933 23.7886 86.1933 22.954V20.0327C86.1933 19.1981 86.0549 18.6416 85.7782 18.3634C85.3632 17.9461 84.8098 17.807 83.9797 17.807ZM68.7609 35.8909V15.1639H85.3632C86.885 15.1639 87.9919 15.4422 88.6836 16.1377C89.3754 16.6941 89.6521 17.807 89.6521 19.1981V23.7886C89.6521 25.1797 89.3754 26.1534 88.6836 26.849C87.9919 27.4054 86.885 27.8227 85.3632 27.8227H82.3194L97.8148 42.0117H92.6958L75.2635 25.0406H72.2197V35.8909H68.7609ZM102.242 32.9697H119.259V17.9461H102.242V32.9697ZM98.7833 20.0327C98.7833 18.2243 99.1984 16.8332 99.8901 16.1377C100.582 15.5813 101.827 15.1639 103.626 15.1639H117.876C119.813 15.1639 121.058 15.4422 121.611 16.1377C122.303 16.8332 122.718 18.2243 122.718 20.0327V30.8831C122.718 32.8306 122.303 34.0826 121.611 34.7781C121.058 35.4736 119.813 35.8909 117.876 35.8909H103.626C101.827 35.8909 100.582 35.4736 99.8901 34.7781C99.1984 34.0826 98.7833 32.8306 98.7833 30.8831V20.0327ZM207.666 35.8909V15.1639H210.987V35.8909H207.666ZM236.997 17.807H225.099V25.0406H236.997C237.827 25.0406 238.38 24.9015 238.657 24.6232C239.072 24.345 239.211 23.7886 239.211 22.954V20.0327C239.211 19.1981 239.072 18.6416 238.657 18.3634C238.38 17.9461 237.827 17.807 236.997 17.807ZM221.778 35.8909V15.1639H238.242C239.902 15.1639 241.009 15.4422 241.563 16.1377C242.254 16.6941 242.669 17.807 242.669 19.1981V23.7886C242.669 25.1797 242.254 26.1534 241.563 26.849C241.009 27.4054 239.902 27.8227 238.242 27.8227H235.337L250.97 42.0117H245.713L228.557 25.0406H225.099V35.8909H221.778ZM252.077 35.8909V15.1639H271.862V17.9461H255.536V23.6495H265.497V26.4316H255.536V32.9697H272V35.8909H252.077Z" fill="#130217"/>
<path fill-rule="evenodd" clip-rule="evenodd" d="M175.581 46.6011V26.5696C175.581 24.9003 174.474 24.2047 174.474 24.2047L152.753 11.9633C151.923 12.5197 150.816 13.6325 150.816 15.9974V37.1417C150.816 39.5066 152.061 40.7585 152.891 41.1759L171.707 51.8871L172.814 52.5827C173.367 52.8609 174.059 53 174.612 53C174.889 53 175.304 52.8609 175.581 52.8609C176.134 52.7218 176.549 52.4436 176.549 52.4436L186.511 46.8793L196.334 41.1759C197.025 40.7585 198.409 39.5066 198.409 37.0026V33.1076V30.4646V15.9974C198.409 13.4934 197.025 12.2415 196.334 11.8241L176.411 0.417323C176.134 0.278215 175.443 0 174.612 0C173.921 0 173.367 0.139108 172.676 0.417323L172.537 0.55643L171.292 1.25197L179.455 5.98163L193.428 13.9108C193.428 13.9108 193.567 13.9108 193.982 14.189C194.397 14.6063 195.089 15.3018 195.227 16.5538C195.227 16.6929 195.227 16.832 195.227 17.1102V35.6115C195.227 35.6115 195.227 35.7507 195.227 36.0289C195.089 36.5853 194.812 37.6982 193.428 38.3937L183.467 44.0971L177.379 47.5748C175.719 48.5486 175.581 46.6011 175.581 46.6011ZM179.455 23.7874V40.2021C179.455 40.4803 179.731 40.8976 180.147 40.7585L182.914 39.2283C183.329 38.9501 183.467 38.3937 183.467 38.2546V22.6745C183.329 21.1444 182.222 20.5879 182.222 20.5879L179.593 19.0577L179.455 18.9186L168.387 12.6588L159.947 7.79003L156.903 9.45932L178.348 21.7008C178.348 21.7008 179.455 22.3963 179.455 23.7874ZM187.341 23.3701V35.7507C187.341 35.7507 187.341 36.4462 188.171 36.3071L190.8 34.7769C191.215 34.4987 191.215 33.664 191.215 33.664V25.5958V18.9186C191.215 17.3885 190.108 16.832 190.108 16.832L167.141 3.6168L164.098 5.4252L185.819 17.8058C185.819 17.8058 187.341 18.9186 187.341 20.5879V23.3701Z" fill="url(#paint0_linear)"/>
<defs>
<linearGradient id="paint0_linear" x1="198.605" y1="-13.3607" x2="93.4803" y2="34.1208" gradientUnits="userSpaceOnUse">
<stop stop-color="#402A85"/>
<stop offset="0.020202" stop-color="#402A85"/>
<stop offset="0.292929" stop-color="#352058"/>
<stop offset="1" stop-color="#201E4C"/>
</linearGradient>
</defs>
</svg>
