<svg width="43" height="41" viewBox="0 0 43 41" fill="none" xmlns="http://www.w3.org/2000/svg">
<path d="M37.6844 0H2.22507C1.02489 0 0.0429688 0.976168 0.0429688 2.16932V6.07406C0.0429688 7.26722 1.02489 8.24338 2.22507 8.24338H37.5753C38.7755 8.24338 39.7574 7.26722 39.7574 6.07406V2.16932C39.8665 0.976168 38.8845 0 37.6844 0ZM37.6844 21.8016H2.22507C1.02489 21.8016 0.0429688 22.7777 0.0429688 23.9709V27.8756C0.0429688 29.0688 1.02489 30.045 2.22507 30.045H37.5753C38.7755 30.045 39.7574 29.0688 39.7574 27.8756V23.9709C39.8665 22.7777 38.8845 21.8016 37.6844 21.8016ZM22.1914 32.7566H2.22507C1.02489 32.7566 0.0429688 33.7328 0.0429688 34.9259V38.8307C0.0429688 40.0238 1.02489 41 2.22507 41H22.1914C23.3916 41 24.3735 40.0238 24.3735 38.8307V34.9259C24.3735 33.7328 23.3916 32.7566 22.1914 32.7566ZM39.8665 10.955H2.22507C1.02489 10.955 0.0429688 11.9312 0.0429688 13.1243V17.0291C0.0429688 18.2222 1.02489 19.1984 2.22507 19.1984H39.8665C41.0667 19.1984 42.0486 18.2222 42.0486 17.0291V13.1243C42.0486 11.9312 41.0667 10.955 39.8665 10.955Z" fill="#9A9797"/>
</svg>
