<svg width="16" height="16" viewBox="0 0 16 16" fill="none" xmlns="http://www.w3.org/2000/svg">
<path d="M8 16C12.4183 16 16 12.4183 16 8C16 3.58172 12.4183 0 8 0C3.58172 0 0 3.58172 0 8C0 12.4183 3.58172 16 8 16Z" fill="#039BE5"/>
<path d="M3.66084 7.82656L11.3742 4.85256C11.7322 4.72323 12.0448 4.93989 11.9288 5.48123L11.9295 5.48056L10.6162 11.6679C10.5188 12.1066 10.2582 12.2132 9.89351 12.0066L7.89351 10.5326L6.92884 11.4619C6.82217 11.5686 6.73218 11.6586 6.52551 11.6586L6.66751 9.62323L10.3742 6.27456C10.5355 6.13256 10.3382 6.05256 10.1255 6.19389L5.54484 9.07789L3.57017 8.46189C3.14151 8.32589 3.13218 8.03323 3.66084 7.82656Z" fill="white"/>
</svg>
