<svg width="16" height="16" viewBox="0 0 16 16" fill="none" xmlns="http://www.w3.org/2000/svg">
<path d="M8.002 0H7.998C3.587 0 0 3.588 0 8C0 9.75 0.564 11.372 1.523 12.689L0.526 15.661L3.601 14.678C4.866 15.516 6.375 16 8.002 16C12.413 16 16 12.411 16 8C16 3.589 12.413 0 8.002 0Z" fill="#4CAF50"/>
<path d="M12.6571 11.2969C12.4641 11.8419 11.6981 12.2939 11.0871 12.4259C10.6691 12.5149 10.1231 12.5859 8.28505 11.8239C5.93405 10.8499 4.42005 8.46094 4.30205 8.30594C4.18905 8.15094 3.35205 7.04094 3.35205 5.89294C3.35205 4.74494 3.93505 4.18594 4.17005 3.94594C4.36305 3.74894 4.68205 3.65894 4.98805 3.65894C5.08705 3.65894 5.17605 3.66394 5.25605 3.66794C5.49105 3.67794 5.60905 3.69194 5.76405 4.06294C5.95705 4.52794 6.42705 5.67594 6.48305 5.79394C6.54005 5.91194 6.59705 6.07194 6.51705 6.22694C6.44205 6.38694 6.37605 6.45794 6.25805 6.59394C6.14005 6.72994 6.02805 6.83394 5.91005 6.97994C5.80205 7.10694 5.68005 7.24294 5.81605 7.47794C5.95205 7.70794 6.42205 8.47494 7.11405 9.09094C8.00705 9.88594 8.73105 10.1399 8.99005 10.2479C9.18305 10.3279 9.41305 10.3089 9.55405 10.1589C9.73305 9.96594 9.95405 9.64594 10.1791 9.33094C10.3391 9.10494 10.5411 9.07694 10.7531 9.15694C10.9691 9.23194 12.1121 9.79694 12.3471 9.91394C12.5821 10.0319 12.7371 10.0879 12.7941 10.1869C12.85 10.2859 12.85 10.7509 12.6571 11.2969Z" fill="#FAFAFA"/>
</svg>
