<svg width="39" height="40" viewBox="0 0 39 40" fill="none" xmlns="http://www.w3.org/2000/svg">
<g clip-path="url(#clip0)">
<path fill-rule="evenodd" clip-rule="evenodd" d="M3.95079 11.0231L4.01723 10.7591L4.08368 10.429L7.00715 0L38.1022 0.0660066L3.75146 27.8548L19.4319 9.0429H7.67157L7.00715 9.10891C5.61185 9.17492 4.34945 10.033 3.95079 11.0231Z" fill="#9A9797"/>
<path fill-rule="evenodd" clip-rule="evenodd" d="M36.4415 19.0759C36.4415 18.9439 35.4449 24.9505 33.7838 31.1551L1.29346 31.3532L36.3751 3.16833L20.6282 22.1122H32.455L33.1194 22.0462C34.5147 21.9802 35.9764 20.066 36.4415 19.0759Z" fill="#9A9797"/>
<path fill-rule="evenodd" clip-rule="evenodd" d="M5.61238 40H0.0976562L3.88488 34.8515H1.36006L1.55939 33.3993H6.80835L3.02113 38.5478H5.81171L5.61238 40ZM6.67546 40L7.53922 33.3993H11.3264L11.1271 34.8515H9.00095L8.86807 35.9736H10.8613L10.7285 37.4257H8.66874L8.53585 38.5478H10.662L10.4627 40H6.67546ZM11.5922 40L12.456 33.3993H14.117L16.0439 36.8317L16.1767 37.2277L16.4425 37.9538C16.4464 37.535 16.4686 37.1166 16.509 36.6997L16.9076 33.3993H18.5687L17.7049 40H16.1103L14.1835 36.6337L13.9841 36.1716L13.7184 35.4455C13.715 35.8863 13.6928 36.3267 13.6519 36.7657L13.2533 40H11.5922ZM19.1002 40L19.964 33.3993H21.6915L20.8277 40H19.1002ZM23.0868 40L23.7512 34.9835H22.3559L22.5552 33.3993H27.0733L26.874 34.9835H25.4787L24.8143 40H23.0868ZM27.0069 40L27.8706 33.3993H29.5981L29.2659 35.9736H31.525L31.8572 33.3993H33.5847L32.7209 40H30.9934L31.3256 37.2937H29.0666L28.7344 40H27.0069Z" fill="#9A9797"/>
</g>
<defs>
<clipPath id="clip0">
<rect width="38.0051" height="40" fill="white" transform="translate(0.0976562)"/>
</clipPath>
</defs>
</svg>
